G04 (created by PCBNEW (2013-07-07 BZR 4022)-stable) date 3/28/2015 9:54:38 PM*
%MOIN*%
G04 Gerber Fmt 3.4, Leading zero omitted, Abs format*
%FSLAX34Y34*%
G01*
G70*
G90*
G04 APERTURE LIST*
%ADD10C,0.00590551*%
%ADD11C,0.011811*%
%ADD12C,0.00393701*%
%ADD13C,0.0590551*%
%ADD14R,0.06X0.08*%
%ADD15R,0.062X0.09*%
%ADD16O,0.062X0.09*%
%ADD17R,0.09X0.062*%
%ADD18O,0.09X0.062*%
%ADD19C,0.055*%
%ADD20C,0.056*%
%ADD21R,0.08X0.06*%
%ADD22C,0.05*%
%ADD23C,0.045*%
%ADD24C,0.04*%
%ADD25C,0.035*%
%ADD26C,0.05*%
G04 APERTURE END LIST*
G54D10*
G54D11*
X119240Y-54082D02*
X119212Y-54110D01*
X119128Y-54139D01*
X119071Y-54139D01*
X118987Y-54110D01*
X118931Y-54054D01*
X118903Y-53998D01*
X118875Y-53885D01*
X118875Y-53801D01*
X118903Y-53689D01*
X118931Y-53632D01*
X118987Y-53576D01*
X119071Y-53548D01*
X119128Y-53548D01*
X119212Y-53576D01*
X119240Y-53604D01*
X119606Y-53548D02*
X119718Y-53548D01*
X119775Y-53576D01*
X119831Y-53632D01*
X119859Y-53745D01*
X119859Y-53942D01*
X119831Y-54054D01*
X119775Y-54110D01*
X119718Y-54139D01*
X119606Y-54139D01*
X119550Y-54110D01*
X119493Y-54054D01*
X119465Y-53942D01*
X119465Y-53745D01*
X119493Y-53632D01*
X119550Y-53576D01*
X119606Y-53548D01*
X120112Y-54139D02*
X120112Y-53548D01*
X120309Y-53970D01*
X120506Y-53548D01*
X120506Y-54139D01*
X120787Y-54139D02*
X120787Y-53548D01*
X121012Y-53548D01*
X121068Y-53576D01*
X121096Y-53604D01*
X121124Y-53660D01*
X121124Y-53745D01*
X121096Y-53801D01*
X121068Y-53829D01*
X121012Y-53857D01*
X120787Y-53857D01*
G54D12*
X88900Y-24900D02*
X88900Y-27400D01*
X88900Y-24900D02*
X91400Y-24900D01*
X88900Y-54400D02*
X88900Y-51900D01*
X88900Y-54400D02*
X91400Y-54400D01*
X104900Y-54400D02*
X102400Y-54400D01*
X104900Y-54400D02*
X104900Y-51900D01*
X104900Y-24900D02*
X104900Y-27400D01*
X104900Y-24900D02*
X102400Y-24900D01*
X105300Y-24900D02*
X105300Y-27400D01*
X105300Y-24900D02*
X107800Y-24900D01*
X105300Y-54400D02*
X105300Y-51900D01*
X105300Y-54400D02*
X107800Y-54400D01*
X121300Y-54400D02*
X118800Y-54400D01*
X121300Y-54400D02*
X121300Y-51900D01*
X121300Y-24900D02*
X121300Y-27400D01*
X121300Y-24900D02*
X118800Y-24900D01*
X105300Y-54800D02*
X105300Y-57300D01*
X105300Y-54800D02*
X107800Y-54800D01*
X105300Y-84300D02*
X105300Y-81800D01*
X105300Y-84300D02*
X107800Y-84300D01*
X121300Y-84300D02*
X118800Y-84300D01*
X121300Y-84300D02*
X121300Y-81800D01*
X121300Y-54800D02*
X121300Y-57300D01*
X121300Y-54800D02*
X118800Y-54800D01*
X88900Y-54800D02*
X88900Y-57300D01*
X88900Y-54800D02*
X91400Y-54800D01*
X88900Y-84300D02*
X88900Y-81800D01*
X88900Y-84300D02*
X91400Y-84300D01*
X104900Y-84300D02*
X102400Y-84300D01*
X104900Y-84300D02*
X104900Y-81800D01*
X104900Y-54800D02*
X104900Y-57300D01*
X104900Y-54800D02*
X102400Y-54800D01*
X72600Y-24900D02*
X72600Y-27400D01*
X72600Y-24900D02*
X75100Y-24900D01*
X72600Y-54400D02*
X72600Y-51900D01*
X72600Y-54400D02*
X75100Y-54400D01*
X88600Y-54400D02*
X86100Y-54400D01*
X88600Y-54400D02*
X88600Y-51900D01*
X88600Y-24900D02*
X88600Y-27400D01*
X88600Y-24900D02*
X86100Y-24900D01*
X39700Y-54800D02*
X39700Y-57300D01*
X39700Y-54800D02*
X42200Y-54800D01*
X39700Y-84300D02*
X39700Y-81800D01*
X39700Y-84300D02*
X42200Y-84300D01*
X55700Y-84300D02*
X53200Y-84300D01*
X55700Y-84300D02*
X55700Y-81800D01*
X55700Y-54800D02*
X55700Y-57300D01*
X55700Y-54800D02*
X53200Y-54800D01*
X72600Y-54800D02*
X72600Y-57300D01*
X72600Y-54800D02*
X75100Y-54800D01*
X72600Y-84300D02*
X72600Y-81800D01*
X72600Y-84300D02*
X75100Y-84300D01*
X88600Y-84300D02*
X86100Y-84300D01*
X88600Y-84300D02*
X88600Y-81800D01*
X88600Y-54800D02*
X88600Y-57300D01*
X88600Y-54800D02*
X86100Y-54800D01*
X39700Y-24900D02*
X39700Y-27400D01*
X39700Y-24900D02*
X42200Y-24900D01*
X39700Y-54400D02*
X39700Y-51900D01*
X39700Y-54400D02*
X42200Y-54400D01*
X55700Y-54400D02*
X53200Y-54400D01*
X55700Y-54400D02*
X55700Y-51900D01*
X55700Y-24900D02*
X55700Y-27400D01*
X55700Y-24900D02*
X53200Y-24900D01*
X56200Y-54800D02*
X56200Y-57300D01*
X56200Y-54800D02*
X58700Y-54800D01*
X56200Y-84300D02*
X56200Y-81800D01*
X56200Y-84300D02*
X58700Y-84300D01*
X72200Y-84300D02*
X69700Y-84300D01*
X72200Y-84300D02*
X72200Y-81800D01*
X72200Y-54800D02*
X72200Y-57300D01*
X72200Y-54800D02*
X69700Y-54800D01*
X56200Y-24900D02*
X56200Y-27400D01*
X56200Y-24900D02*
X58700Y-24900D01*
X56200Y-54400D02*
X56200Y-51900D01*
X56200Y-54400D02*
X58700Y-54400D01*
X72200Y-54400D02*
X69700Y-54400D01*
X72200Y-54400D02*
X72200Y-51900D01*
X72200Y-24900D02*
X72200Y-27400D01*
X72200Y-24900D02*
X69700Y-24900D01*
G54D13*
X92496Y-28800D03*
X92500Y-25804D03*
G54D14*
X96050Y-33100D03*
X97350Y-33100D03*
X96250Y-41900D03*
X97550Y-41900D03*
X96250Y-48300D03*
X97550Y-48300D03*
X96050Y-36900D03*
X97350Y-36900D03*
X96050Y-35500D03*
X97350Y-35500D03*
G54D15*
X95500Y-26400D03*
G54D16*
X96500Y-26400D03*
X97500Y-26400D03*
X98500Y-26400D03*
X99500Y-26400D03*
X100500Y-26400D03*
G54D17*
X89900Y-39400D03*
G54D18*
X89900Y-38400D03*
X89900Y-37400D03*
X89900Y-36400D03*
X89900Y-35400D03*
X89900Y-34400D03*
X89900Y-33400D03*
X89900Y-32400D03*
X89900Y-31400D03*
X89900Y-30400D03*
G54D17*
X89900Y-49400D03*
G54D18*
X89900Y-48400D03*
X89900Y-47400D03*
X89900Y-46400D03*
X89900Y-45400D03*
X89900Y-44400D03*
X89900Y-43400D03*
X89900Y-42400D03*
X89900Y-41400D03*
X89900Y-40400D03*
G54D17*
X103900Y-40400D03*
G54D18*
X103900Y-41400D03*
X103900Y-42400D03*
X103900Y-43400D03*
X103900Y-44400D03*
X103900Y-45400D03*
X103900Y-46400D03*
X103900Y-47400D03*
X103900Y-48400D03*
X103900Y-49400D03*
G54D17*
X103900Y-30400D03*
G54D18*
X103900Y-31400D03*
X103900Y-32400D03*
G54D19*
X103900Y-33400D03*
G54D18*
X103900Y-34400D03*
X103900Y-35400D03*
X103900Y-36400D03*
X103900Y-37400D03*
X103900Y-38400D03*
X103900Y-39400D03*
G54D20*
X96900Y-46100D03*
X96900Y-44100D03*
G54D17*
X93900Y-30400D03*
G54D18*
X93900Y-31400D03*
X93900Y-32400D03*
X93900Y-33400D03*
X93900Y-34400D03*
X93900Y-35400D03*
X93900Y-36400D03*
X93900Y-37400D03*
X93900Y-38400D03*
X93900Y-39400D03*
X93900Y-40400D03*
X93900Y-41400D03*
X93900Y-42400D03*
X93900Y-43400D03*
X93900Y-44400D03*
X93900Y-45400D03*
X93900Y-46400D03*
X93900Y-47400D03*
X93900Y-48400D03*
X93900Y-49400D03*
X99900Y-49400D03*
X99900Y-48400D03*
X99900Y-47400D03*
X99900Y-46400D03*
X99900Y-45400D03*
X99900Y-44400D03*
X99900Y-43400D03*
X99900Y-42400D03*
X99900Y-41400D03*
X99900Y-40400D03*
X99900Y-39400D03*
X99900Y-38400D03*
X99900Y-37400D03*
X99900Y-36400D03*
X99900Y-35400D03*
X99900Y-34400D03*
X99900Y-33400D03*
X99900Y-32400D03*
X99900Y-31400D03*
X99900Y-30400D03*
G54D14*
X103850Y-29000D03*
X102550Y-29000D03*
G54D21*
X103100Y-27450D03*
X103100Y-26150D03*
G54D14*
X96250Y-52900D03*
X97550Y-52900D03*
X91850Y-52900D03*
X93150Y-52900D03*
X100050Y-52900D03*
X101350Y-52900D03*
G54D13*
X108896Y-28800D03*
X108900Y-25804D03*
G54D14*
X112450Y-33100D03*
X113750Y-33100D03*
X112650Y-41900D03*
X113950Y-41900D03*
X112650Y-48300D03*
X113950Y-48300D03*
X112450Y-36900D03*
X113750Y-36900D03*
X112450Y-35500D03*
X113750Y-35500D03*
G54D15*
X111900Y-26400D03*
G54D16*
X112900Y-26400D03*
X113900Y-26400D03*
X114900Y-26400D03*
X115900Y-26400D03*
X116900Y-26400D03*
G54D17*
X106300Y-39400D03*
G54D18*
X106300Y-38400D03*
X106300Y-37400D03*
X106300Y-36400D03*
X106300Y-35400D03*
X106300Y-34400D03*
X106300Y-33400D03*
X106300Y-32400D03*
X106300Y-31400D03*
X106300Y-30400D03*
G54D17*
X106300Y-49400D03*
G54D18*
X106300Y-48400D03*
X106300Y-47400D03*
X106300Y-46400D03*
X106300Y-45400D03*
X106300Y-44400D03*
X106300Y-43400D03*
X106300Y-42400D03*
X106300Y-41400D03*
X106300Y-40400D03*
G54D17*
X120300Y-40400D03*
G54D18*
X120300Y-41400D03*
X120300Y-42400D03*
X120300Y-43400D03*
X120300Y-44400D03*
X120300Y-45400D03*
X120300Y-46400D03*
X120300Y-47400D03*
X120300Y-48400D03*
X120300Y-49400D03*
G54D17*
X120300Y-30400D03*
G54D18*
X120300Y-31400D03*
X120300Y-32400D03*
G54D19*
X120300Y-33400D03*
G54D18*
X120300Y-34400D03*
X120300Y-35400D03*
X120300Y-36400D03*
X120300Y-37400D03*
X120300Y-38400D03*
X120300Y-39400D03*
G54D20*
X113300Y-46100D03*
X113300Y-44100D03*
G54D17*
X110300Y-30400D03*
G54D18*
X110300Y-31400D03*
X110300Y-32400D03*
X110300Y-33400D03*
X110300Y-34400D03*
X110300Y-35400D03*
X110300Y-36400D03*
X110300Y-37400D03*
X110300Y-38400D03*
X110300Y-39400D03*
X110300Y-40400D03*
X110300Y-41400D03*
X110300Y-42400D03*
X110300Y-43400D03*
X110300Y-44400D03*
X110300Y-45400D03*
X110300Y-46400D03*
X110300Y-47400D03*
X110300Y-48400D03*
X110300Y-49400D03*
X116300Y-49400D03*
X116300Y-48400D03*
X116300Y-47400D03*
X116300Y-46400D03*
X116300Y-45400D03*
X116300Y-44400D03*
X116300Y-43400D03*
X116300Y-42400D03*
X116300Y-41400D03*
X116300Y-40400D03*
X116300Y-39400D03*
X116300Y-38400D03*
X116300Y-37400D03*
X116300Y-36400D03*
X116300Y-35400D03*
X116300Y-34400D03*
X116300Y-33400D03*
X116300Y-32400D03*
X116300Y-31400D03*
X116300Y-30400D03*
G54D14*
X120250Y-29000D03*
X118950Y-29000D03*
G54D21*
X119500Y-27450D03*
X119500Y-26150D03*
G54D14*
X112650Y-52900D03*
X113950Y-52900D03*
X108250Y-52900D03*
X109550Y-52900D03*
X116450Y-52900D03*
X117750Y-52900D03*
G54D13*
X108896Y-58700D03*
X108900Y-55704D03*
G54D14*
X112450Y-63000D03*
X113750Y-63000D03*
X112650Y-71800D03*
X113950Y-71800D03*
X112650Y-78200D03*
X113950Y-78200D03*
X112450Y-66800D03*
X113750Y-66800D03*
X112450Y-65400D03*
X113750Y-65400D03*
G54D15*
X111900Y-56300D03*
G54D16*
X112900Y-56300D03*
X113900Y-56300D03*
X114900Y-56300D03*
X115900Y-56300D03*
X116900Y-56300D03*
G54D17*
X106300Y-69300D03*
G54D18*
X106300Y-68300D03*
X106300Y-67300D03*
X106300Y-66300D03*
X106300Y-65300D03*
X106300Y-64300D03*
X106300Y-63300D03*
X106300Y-62300D03*
X106300Y-61300D03*
X106300Y-60300D03*
G54D17*
X106300Y-79300D03*
G54D18*
X106300Y-78300D03*
X106300Y-77300D03*
X106300Y-76300D03*
X106300Y-75300D03*
X106300Y-74300D03*
X106300Y-73300D03*
X106300Y-72300D03*
X106300Y-71300D03*
X106300Y-70300D03*
G54D17*
X120300Y-70300D03*
G54D18*
X120300Y-71300D03*
X120300Y-72300D03*
X120300Y-73300D03*
X120300Y-74300D03*
X120300Y-75300D03*
X120300Y-76300D03*
X120300Y-77300D03*
X120300Y-78300D03*
X120300Y-79300D03*
G54D17*
X120300Y-60300D03*
G54D18*
X120300Y-61300D03*
X120300Y-62300D03*
G54D19*
X120300Y-63300D03*
G54D18*
X120300Y-64300D03*
X120300Y-65300D03*
X120300Y-66300D03*
X120300Y-67300D03*
X120300Y-68300D03*
X120300Y-69300D03*
G54D20*
X113300Y-76000D03*
X113300Y-74000D03*
G54D17*
X110300Y-60300D03*
G54D18*
X110300Y-61300D03*
X110300Y-62300D03*
X110300Y-63300D03*
X110300Y-64300D03*
X110300Y-65300D03*
X110300Y-66300D03*
X110300Y-67300D03*
X110300Y-68300D03*
X110300Y-69300D03*
X110300Y-70300D03*
X110300Y-71300D03*
X110300Y-72300D03*
X110300Y-73300D03*
X110300Y-74300D03*
X110300Y-75300D03*
X110300Y-76300D03*
X110300Y-77300D03*
X110300Y-78300D03*
X110300Y-79300D03*
X116300Y-79300D03*
X116300Y-78300D03*
X116300Y-77300D03*
X116300Y-76300D03*
X116300Y-75300D03*
X116300Y-74300D03*
X116300Y-73300D03*
X116300Y-72300D03*
X116300Y-71300D03*
X116300Y-70300D03*
X116300Y-69300D03*
X116300Y-68300D03*
X116300Y-67300D03*
X116300Y-66300D03*
X116300Y-65300D03*
X116300Y-64300D03*
X116300Y-63300D03*
X116300Y-62300D03*
X116300Y-61300D03*
X116300Y-60300D03*
G54D14*
X120250Y-58900D03*
X118950Y-58900D03*
G54D21*
X119500Y-57350D03*
X119500Y-56050D03*
G54D14*
X112650Y-82800D03*
X113950Y-82800D03*
X108250Y-82800D03*
X109550Y-82800D03*
X116450Y-82800D03*
X117750Y-82800D03*
G54D13*
X92496Y-58700D03*
X92500Y-55704D03*
G54D14*
X96050Y-63000D03*
X97350Y-63000D03*
X96250Y-71800D03*
X97550Y-71800D03*
X96250Y-78200D03*
X97550Y-78200D03*
X96050Y-66800D03*
X97350Y-66800D03*
X96050Y-65400D03*
X97350Y-65400D03*
G54D15*
X95500Y-56300D03*
G54D16*
X96500Y-56300D03*
X97500Y-56300D03*
X98500Y-56300D03*
X99500Y-56300D03*
X100500Y-56300D03*
G54D17*
X89900Y-69300D03*
G54D18*
X89900Y-68300D03*
X89900Y-67300D03*
X89900Y-66300D03*
X89900Y-65300D03*
X89900Y-64300D03*
X89900Y-63300D03*
X89900Y-62300D03*
X89900Y-61300D03*
X89900Y-60300D03*
G54D17*
X89900Y-79300D03*
G54D18*
X89900Y-78300D03*
X89900Y-77300D03*
X89900Y-76300D03*
X89900Y-75300D03*
X89900Y-74300D03*
X89900Y-73300D03*
X89900Y-72300D03*
X89900Y-71300D03*
X89900Y-70300D03*
G54D17*
X103900Y-70300D03*
G54D18*
X103900Y-71300D03*
X103900Y-72300D03*
X103900Y-73300D03*
X103900Y-74300D03*
X103900Y-75300D03*
X103900Y-76300D03*
X103900Y-77300D03*
X103900Y-78300D03*
X103900Y-79300D03*
G54D17*
X103900Y-60300D03*
G54D18*
X103900Y-61300D03*
X103900Y-62300D03*
G54D19*
X103900Y-63300D03*
G54D18*
X103900Y-64300D03*
X103900Y-65300D03*
X103900Y-66300D03*
X103900Y-67300D03*
X103900Y-68300D03*
X103900Y-69300D03*
G54D20*
X96900Y-76000D03*
X96900Y-74000D03*
G54D17*
X93900Y-60300D03*
G54D18*
X93900Y-61300D03*
X93900Y-62300D03*
X93900Y-63300D03*
X93900Y-64300D03*
X93900Y-65300D03*
X93900Y-66300D03*
X93900Y-67300D03*
X93900Y-68300D03*
X93900Y-69300D03*
X93900Y-70300D03*
X93900Y-71300D03*
X93900Y-72300D03*
X93900Y-73300D03*
X93900Y-74300D03*
X93900Y-75300D03*
X93900Y-76300D03*
X93900Y-77300D03*
X93900Y-78300D03*
X93900Y-79300D03*
X99900Y-79300D03*
X99900Y-78300D03*
X99900Y-77300D03*
X99900Y-76300D03*
X99900Y-75300D03*
X99900Y-74300D03*
X99900Y-73300D03*
X99900Y-72300D03*
X99900Y-71300D03*
X99900Y-70300D03*
X99900Y-69300D03*
X99900Y-68300D03*
X99900Y-67300D03*
X99900Y-66300D03*
X99900Y-65300D03*
X99900Y-64300D03*
X99900Y-63300D03*
X99900Y-62300D03*
X99900Y-61300D03*
X99900Y-60300D03*
G54D14*
X103850Y-58900D03*
X102550Y-58900D03*
G54D21*
X103100Y-57350D03*
X103100Y-56050D03*
G54D14*
X96250Y-82800D03*
X97550Y-82800D03*
X91850Y-82800D03*
X93150Y-82800D03*
X100050Y-82800D03*
X101350Y-82800D03*
G54D13*
X76196Y-28800D03*
X76200Y-25804D03*
G54D14*
X79750Y-33100D03*
X81050Y-33100D03*
X79950Y-41900D03*
X81250Y-41900D03*
X79950Y-48300D03*
X81250Y-48300D03*
X79750Y-36900D03*
X81050Y-36900D03*
X79750Y-35500D03*
X81050Y-35500D03*
G54D15*
X79200Y-26400D03*
G54D16*
X80200Y-26400D03*
X81200Y-26400D03*
X82200Y-26400D03*
X83200Y-26400D03*
X84200Y-26400D03*
G54D17*
X73600Y-39400D03*
G54D18*
X73600Y-38400D03*
X73600Y-37400D03*
X73600Y-36400D03*
X73600Y-35400D03*
X73600Y-34400D03*
X73600Y-33400D03*
X73600Y-32400D03*
X73600Y-31400D03*
X73600Y-30400D03*
G54D17*
X73600Y-49400D03*
G54D18*
X73600Y-48400D03*
X73600Y-47400D03*
X73600Y-46400D03*
X73600Y-45400D03*
X73600Y-44400D03*
X73600Y-43400D03*
X73600Y-42400D03*
X73600Y-41400D03*
X73600Y-40400D03*
G54D17*
X87600Y-40400D03*
G54D18*
X87600Y-41400D03*
X87600Y-42400D03*
X87600Y-43400D03*
X87600Y-44400D03*
X87600Y-45400D03*
X87600Y-46400D03*
X87600Y-47400D03*
X87600Y-48400D03*
X87600Y-49400D03*
G54D17*
X87600Y-30400D03*
G54D18*
X87600Y-31400D03*
X87600Y-32400D03*
G54D19*
X87600Y-33400D03*
G54D18*
X87600Y-34400D03*
X87600Y-35400D03*
X87600Y-36400D03*
X87600Y-37400D03*
X87600Y-38400D03*
X87600Y-39400D03*
G54D20*
X80600Y-46100D03*
X80600Y-44100D03*
G54D17*
X77600Y-30400D03*
G54D18*
X77600Y-31400D03*
X77600Y-32400D03*
X77600Y-33400D03*
X77600Y-34400D03*
X77600Y-35400D03*
X77600Y-36400D03*
X77600Y-37400D03*
X77600Y-38400D03*
X77600Y-39400D03*
X77600Y-40400D03*
X77600Y-41400D03*
X77600Y-42400D03*
X77600Y-43400D03*
X77600Y-44400D03*
X77600Y-45400D03*
X77600Y-46400D03*
X77600Y-47400D03*
X77600Y-48400D03*
X77600Y-49400D03*
X83600Y-49400D03*
X83600Y-48400D03*
X83600Y-47400D03*
X83600Y-46400D03*
X83600Y-45400D03*
X83600Y-44400D03*
X83600Y-43400D03*
X83600Y-42400D03*
X83600Y-41400D03*
X83600Y-40400D03*
X83600Y-39400D03*
X83600Y-38400D03*
X83600Y-37400D03*
X83600Y-36400D03*
X83600Y-35400D03*
X83600Y-34400D03*
X83600Y-33400D03*
X83600Y-32400D03*
X83600Y-31400D03*
X83600Y-30400D03*
G54D14*
X87550Y-29000D03*
X86250Y-29000D03*
G54D21*
X86800Y-27450D03*
X86800Y-26150D03*
G54D14*
X79950Y-52900D03*
X81250Y-52900D03*
X75550Y-52900D03*
X76850Y-52900D03*
X83750Y-52900D03*
X85050Y-52900D03*
G54D13*
X43296Y-58700D03*
X43300Y-55704D03*
G54D14*
X46850Y-63000D03*
X48150Y-63000D03*
X47050Y-71800D03*
X48350Y-71800D03*
X47050Y-78200D03*
X48350Y-78200D03*
X46850Y-66800D03*
X48150Y-66800D03*
X46850Y-65400D03*
X48150Y-65400D03*
G54D15*
X46300Y-56300D03*
G54D16*
X47300Y-56300D03*
X48300Y-56300D03*
X49300Y-56300D03*
X50300Y-56300D03*
X51300Y-56300D03*
G54D17*
X40700Y-69300D03*
G54D18*
X40700Y-68300D03*
X40700Y-67300D03*
X40700Y-66300D03*
X40700Y-65300D03*
X40700Y-64300D03*
X40700Y-63300D03*
X40700Y-62300D03*
X40700Y-61300D03*
X40700Y-60300D03*
G54D17*
X40700Y-79300D03*
G54D18*
X40700Y-78300D03*
X40700Y-77300D03*
X40700Y-76300D03*
X40700Y-75300D03*
X40700Y-74300D03*
X40700Y-73300D03*
X40700Y-72300D03*
X40700Y-71300D03*
X40700Y-70300D03*
G54D17*
X54700Y-70300D03*
G54D18*
X54700Y-71300D03*
X54700Y-72300D03*
X54700Y-73300D03*
X54700Y-74300D03*
X54700Y-75300D03*
X54700Y-76300D03*
X54700Y-77300D03*
X54700Y-78300D03*
X54700Y-79300D03*
G54D17*
X54700Y-60300D03*
G54D18*
X54700Y-61300D03*
X54700Y-62300D03*
G54D19*
X54700Y-63300D03*
G54D18*
X54700Y-64300D03*
X54700Y-65300D03*
X54700Y-66300D03*
X54700Y-67300D03*
X54700Y-68300D03*
X54700Y-69300D03*
G54D20*
X47700Y-76000D03*
X47700Y-74000D03*
G54D17*
X44700Y-60300D03*
G54D18*
X44700Y-61300D03*
X44700Y-62300D03*
X44700Y-63300D03*
X44700Y-64300D03*
X44700Y-65300D03*
X44700Y-66300D03*
X44700Y-67300D03*
X44700Y-68300D03*
X44700Y-69300D03*
X44700Y-70300D03*
X44700Y-71300D03*
X44700Y-72300D03*
X44700Y-73300D03*
X44700Y-74300D03*
X44700Y-75300D03*
X44700Y-76300D03*
X44700Y-77300D03*
X44700Y-78300D03*
X44700Y-79300D03*
X50700Y-79300D03*
X50700Y-78300D03*
X50700Y-77300D03*
X50700Y-76300D03*
X50700Y-75300D03*
X50700Y-74300D03*
X50700Y-73300D03*
X50700Y-72300D03*
X50700Y-71300D03*
X50700Y-70300D03*
X50700Y-69300D03*
X50700Y-68300D03*
X50700Y-67300D03*
X50700Y-66300D03*
X50700Y-65300D03*
X50700Y-64300D03*
X50700Y-63300D03*
X50700Y-62300D03*
X50700Y-61300D03*
X50700Y-60300D03*
G54D14*
X54650Y-58900D03*
X53350Y-58900D03*
G54D21*
X53900Y-57350D03*
X53900Y-56050D03*
G54D14*
X47050Y-82800D03*
X48350Y-82800D03*
X42650Y-82800D03*
X43950Y-82800D03*
X50850Y-82800D03*
X52150Y-82800D03*
G54D13*
X76196Y-58700D03*
X76200Y-55704D03*
G54D14*
X79750Y-63000D03*
X81050Y-63000D03*
X79950Y-71800D03*
X81250Y-71800D03*
X79950Y-78200D03*
X81250Y-78200D03*
X79750Y-66800D03*
X81050Y-66800D03*
X79750Y-65400D03*
X81050Y-65400D03*
G54D15*
X79200Y-56300D03*
G54D16*
X80200Y-56300D03*
X81200Y-56300D03*
X82200Y-56300D03*
X83200Y-56300D03*
X84200Y-56300D03*
G54D17*
X73600Y-69300D03*
G54D18*
X73600Y-68300D03*
X73600Y-67300D03*
X73600Y-66300D03*
X73600Y-65300D03*
X73600Y-64300D03*
X73600Y-63300D03*
X73600Y-62300D03*
X73600Y-61300D03*
X73600Y-60300D03*
G54D17*
X73600Y-79300D03*
G54D18*
X73600Y-78300D03*
X73600Y-77300D03*
X73600Y-76300D03*
X73600Y-75300D03*
X73600Y-74300D03*
X73600Y-73300D03*
X73600Y-72300D03*
X73600Y-71300D03*
X73600Y-70300D03*
G54D17*
X87600Y-70300D03*
G54D18*
X87600Y-71300D03*
X87600Y-72300D03*
X87600Y-73300D03*
X87600Y-74300D03*
X87600Y-75300D03*
X87600Y-76300D03*
X87600Y-77300D03*
X87600Y-78300D03*
X87600Y-79300D03*
G54D17*
X87600Y-60300D03*
G54D18*
X87600Y-61300D03*
X87600Y-62300D03*
G54D19*
X87600Y-63300D03*
G54D18*
X87600Y-64300D03*
X87600Y-65300D03*
X87600Y-66300D03*
X87600Y-67300D03*
X87600Y-68300D03*
X87600Y-69300D03*
G54D20*
X80600Y-76000D03*
X80600Y-74000D03*
G54D17*
X77600Y-60300D03*
G54D18*
X77600Y-61300D03*
X77600Y-62300D03*
X77600Y-63300D03*
X77600Y-64300D03*
X77600Y-65300D03*
X77600Y-66300D03*
X77600Y-67300D03*
X77600Y-68300D03*
X77600Y-69300D03*
X77600Y-70300D03*
X77600Y-71300D03*
X77600Y-72300D03*
X77600Y-73300D03*
X77600Y-74300D03*
X77600Y-75300D03*
X77600Y-76300D03*
X77600Y-77300D03*
X77600Y-78300D03*
X77600Y-79300D03*
X83600Y-79300D03*
X83600Y-78300D03*
X83600Y-77300D03*
X83600Y-76300D03*
X83600Y-75300D03*
X83600Y-74300D03*
X83600Y-73300D03*
X83600Y-72300D03*
X83600Y-71300D03*
X83600Y-70300D03*
X83600Y-69300D03*
X83600Y-68300D03*
X83600Y-67300D03*
X83600Y-66300D03*
X83600Y-65300D03*
X83600Y-64300D03*
X83600Y-63300D03*
X83600Y-62300D03*
X83600Y-61300D03*
X83600Y-60300D03*
G54D14*
X87550Y-58900D03*
X86250Y-58900D03*
G54D21*
X86800Y-57350D03*
X86800Y-56050D03*
G54D14*
X79950Y-82800D03*
X81250Y-82800D03*
X75550Y-82800D03*
X76850Y-82800D03*
X83750Y-82800D03*
X85050Y-82800D03*
G54D13*
X43296Y-28800D03*
X43300Y-25804D03*
G54D14*
X46850Y-33100D03*
X48150Y-33100D03*
X47050Y-41900D03*
X48350Y-41900D03*
X47050Y-48300D03*
X48350Y-48300D03*
X46850Y-36900D03*
X48150Y-36900D03*
X46850Y-35500D03*
X48150Y-35500D03*
G54D15*
X46300Y-26400D03*
G54D16*
X47300Y-26400D03*
X48300Y-26400D03*
X49300Y-26400D03*
X50300Y-26400D03*
X51300Y-26400D03*
G54D17*
X40700Y-39400D03*
G54D18*
X40700Y-38400D03*
X40700Y-37400D03*
X40700Y-36400D03*
X40700Y-35400D03*
X40700Y-34400D03*
X40700Y-33400D03*
X40700Y-32400D03*
X40700Y-31400D03*
X40700Y-30400D03*
G54D17*
X40700Y-49400D03*
G54D18*
X40700Y-48400D03*
X40700Y-47400D03*
X40700Y-46400D03*
X40700Y-45400D03*
X40700Y-44400D03*
X40700Y-43400D03*
X40700Y-42400D03*
X40700Y-41400D03*
X40700Y-40400D03*
G54D17*
X54700Y-40400D03*
G54D18*
X54700Y-41400D03*
X54700Y-42400D03*
X54700Y-43400D03*
X54700Y-44400D03*
X54700Y-45400D03*
X54700Y-46400D03*
X54700Y-47400D03*
X54700Y-48400D03*
X54700Y-49400D03*
G54D17*
X54700Y-30400D03*
G54D18*
X54700Y-31400D03*
X54700Y-32400D03*
G54D19*
X54700Y-33400D03*
G54D18*
X54700Y-34400D03*
X54700Y-35400D03*
X54700Y-36400D03*
X54700Y-37400D03*
X54700Y-38400D03*
X54700Y-39400D03*
G54D20*
X47700Y-46100D03*
X47700Y-44100D03*
G54D17*
X44700Y-30400D03*
G54D18*
X44700Y-31400D03*
X44700Y-32400D03*
X44700Y-33400D03*
X44700Y-34400D03*
X44700Y-35400D03*
X44700Y-36400D03*
X44700Y-37400D03*
X44700Y-38400D03*
X44700Y-39400D03*
X44700Y-40400D03*
X44700Y-41400D03*
X44700Y-42400D03*
X44700Y-43400D03*
X44700Y-44400D03*
X44700Y-45400D03*
X44700Y-46400D03*
X44700Y-47400D03*
X44700Y-48400D03*
X44700Y-49400D03*
X50700Y-49400D03*
X50700Y-48400D03*
X50700Y-47400D03*
X50700Y-46400D03*
X50700Y-45400D03*
X50700Y-44400D03*
X50700Y-43400D03*
X50700Y-42400D03*
X50700Y-41400D03*
X50700Y-40400D03*
X50700Y-39400D03*
X50700Y-38400D03*
X50700Y-37400D03*
X50700Y-36400D03*
X50700Y-35400D03*
X50700Y-34400D03*
X50700Y-33400D03*
X50700Y-32400D03*
X50700Y-31400D03*
X50700Y-30400D03*
G54D14*
X54650Y-29000D03*
X53350Y-29000D03*
G54D21*
X53900Y-27450D03*
X53900Y-26150D03*
G54D14*
X47050Y-52900D03*
X48350Y-52900D03*
X42650Y-52900D03*
X43950Y-52900D03*
X50850Y-52900D03*
X52150Y-52900D03*
G54D13*
X59796Y-58700D03*
X59800Y-55704D03*
G54D14*
X63350Y-63000D03*
X64650Y-63000D03*
X63550Y-71800D03*
X64850Y-71800D03*
X63550Y-78200D03*
X64850Y-78200D03*
X63350Y-66800D03*
X64650Y-66800D03*
X63350Y-65400D03*
X64650Y-65400D03*
G54D15*
X62800Y-56300D03*
G54D16*
X63800Y-56300D03*
X64800Y-56300D03*
X65800Y-56300D03*
X66800Y-56300D03*
X67800Y-56300D03*
G54D17*
X57200Y-69300D03*
G54D18*
X57200Y-68300D03*
X57200Y-67300D03*
X57200Y-66300D03*
X57200Y-65300D03*
X57200Y-64300D03*
X57200Y-63300D03*
X57200Y-62300D03*
X57200Y-61300D03*
X57200Y-60300D03*
G54D17*
X57200Y-79300D03*
G54D18*
X57200Y-78300D03*
X57200Y-77300D03*
X57200Y-76300D03*
X57200Y-75300D03*
X57200Y-74300D03*
X57200Y-73300D03*
X57200Y-72300D03*
X57200Y-71300D03*
X57200Y-70300D03*
G54D17*
X71200Y-70300D03*
G54D18*
X71200Y-71300D03*
X71200Y-72300D03*
X71200Y-73300D03*
X71200Y-74300D03*
X71200Y-75300D03*
X71200Y-76300D03*
X71200Y-77300D03*
X71200Y-78300D03*
X71200Y-79300D03*
G54D17*
X71200Y-60300D03*
G54D18*
X71200Y-61300D03*
X71200Y-62300D03*
G54D19*
X71200Y-63300D03*
G54D18*
X71200Y-64300D03*
X71200Y-65300D03*
X71200Y-66300D03*
X71200Y-67300D03*
X71200Y-68300D03*
X71200Y-69300D03*
G54D20*
X64200Y-76000D03*
X64200Y-74000D03*
G54D17*
X61200Y-60300D03*
G54D18*
X61200Y-61300D03*
X61200Y-62300D03*
X61200Y-63300D03*
X61200Y-64300D03*
X61200Y-65300D03*
X61200Y-66300D03*
X61200Y-67300D03*
X61200Y-68300D03*
X61200Y-69300D03*
X61200Y-70300D03*
X61200Y-71300D03*
X61200Y-72300D03*
X61200Y-73300D03*
X61200Y-74300D03*
X61200Y-75300D03*
X61200Y-76300D03*
X61200Y-77300D03*
X61200Y-78300D03*
X61200Y-79300D03*
X67200Y-79300D03*
X67200Y-78300D03*
X67200Y-77300D03*
X67200Y-76300D03*
X67200Y-75300D03*
X67200Y-74300D03*
X67200Y-73300D03*
X67200Y-72300D03*
X67200Y-71300D03*
X67200Y-70300D03*
X67200Y-69300D03*
X67200Y-68300D03*
X67200Y-67300D03*
X67200Y-66300D03*
X67200Y-65300D03*
X67200Y-64300D03*
X67200Y-63300D03*
X67200Y-62300D03*
X67200Y-61300D03*
X67200Y-60300D03*
G54D14*
X71150Y-58900D03*
X69850Y-58900D03*
G54D21*
X70400Y-57350D03*
X70400Y-56050D03*
G54D14*
X63550Y-82800D03*
X64850Y-82800D03*
X59150Y-82800D03*
X60450Y-82800D03*
X67350Y-82800D03*
X68650Y-82800D03*
G54D13*
X59796Y-28800D03*
X59800Y-25804D03*
G54D14*
X63350Y-33100D03*
X64650Y-33100D03*
X63550Y-41900D03*
X64850Y-41900D03*
X63550Y-48300D03*
X64850Y-48300D03*
X63350Y-36900D03*
X64650Y-36900D03*
X63350Y-35500D03*
X64650Y-35500D03*
G54D15*
X62800Y-26400D03*
G54D16*
X63800Y-26400D03*
X64800Y-26400D03*
X65800Y-26400D03*
X66800Y-26400D03*
X67800Y-26400D03*
G54D17*
X57200Y-39400D03*
G54D18*
X57200Y-38400D03*
X57200Y-37400D03*
X57200Y-36400D03*
X57200Y-35400D03*
X57200Y-34400D03*
X57200Y-33400D03*
X57200Y-32400D03*
X57200Y-31400D03*
X57200Y-30400D03*
G54D17*
X57200Y-49400D03*
G54D18*
X57200Y-48400D03*
X57200Y-47400D03*
X57200Y-46400D03*
X57200Y-45400D03*
X57200Y-44400D03*
X57200Y-43400D03*
X57200Y-42400D03*
X57200Y-41400D03*
X57200Y-40400D03*
G54D17*
X71200Y-40400D03*
G54D18*
X71200Y-41400D03*
X71200Y-42400D03*
X71200Y-43400D03*
X71200Y-44400D03*
X71200Y-45400D03*
X71200Y-46400D03*
X71200Y-47400D03*
X71200Y-48400D03*
X71200Y-49400D03*
G54D17*
X71200Y-30400D03*
G54D18*
X71200Y-31400D03*
X71200Y-32400D03*
G54D19*
X71200Y-33400D03*
G54D18*
X71200Y-34400D03*
X71200Y-35400D03*
X71200Y-36400D03*
X71200Y-37400D03*
X71200Y-38400D03*
X71200Y-39400D03*
G54D20*
X64200Y-46100D03*
X64200Y-44100D03*
G54D17*
X61200Y-30400D03*
G54D18*
X61200Y-31400D03*
X61200Y-32400D03*
X61200Y-33400D03*
X61200Y-34400D03*
X61200Y-35400D03*
X61200Y-36400D03*
X61200Y-37400D03*
X61200Y-38400D03*
X61200Y-39400D03*
X61200Y-40400D03*
X61200Y-41400D03*
X61200Y-42400D03*
X61200Y-43400D03*
X61200Y-44400D03*
X61200Y-45400D03*
X61200Y-46400D03*
X61200Y-47400D03*
X61200Y-48400D03*
X61200Y-49400D03*
X67200Y-49400D03*
X67200Y-48400D03*
X67200Y-47400D03*
X67200Y-46400D03*
X67200Y-45400D03*
X67200Y-44400D03*
X67200Y-43400D03*
X67200Y-42400D03*
X67200Y-41400D03*
X67200Y-40400D03*
X67200Y-39400D03*
X67200Y-38400D03*
X67200Y-37400D03*
X67200Y-36400D03*
X67200Y-35400D03*
X67200Y-34400D03*
X67200Y-33400D03*
X67200Y-32400D03*
X67200Y-31400D03*
X67200Y-30400D03*
G54D14*
X71150Y-29000D03*
X69850Y-29000D03*
G54D21*
X70400Y-27450D03*
X70400Y-26150D03*
G54D14*
X63550Y-52900D03*
X64850Y-52900D03*
X59150Y-52900D03*
X60450Y-52900D03*
X67350Y-52900D03*
X68650Y-52900D03*
G54D22*
X91500Y-46500D03*
X102100Y-52900D03*
X107900Y-46500D03*
X118500Y-52900D03*
X107900Y-76400D03*
X118500Y-82800D03*
X91500Y-76400D03*
X102100Y-82800D03*
X75200Y-46500D03*
X85800Y-52900D03*
X42300Y-76400D03*
X52900Y-82800D03*
X75200Y-76400D03*
X85800Y-82800D03*
X42300Y-46500D03*
X52900Y-52900D03*
X58800Y-76400D03*
X69400Y-82800D03*
X58800Y-46500D03*
X69400Y-52900D03*
X98900Y-52900D03*
X94500Y-52900D03*
X115300Y-52900D03*
X110900Y-52900D03*
X115300Y-82800D03*
X110900Y-82800D03*
X98900Y-82800D03*
X94500Y-82800D03*
X82600Y-52900D03*
X78200Y-52900D03*
X49700Y-82800D03*
X45300Y-82800D03*
X82600Y-82800D03*
X78200Y-82800D03*
X49700Y-52900D03*
X45300Y-52900D03*
X66200Y-82800D03*
X61800Y-82800D03*
X66200Y-52900D03*
X61800Y-52900D03*
G54D23*
X98300Y-25300D02*
X97000Y-25300D01*
X96500Y-25800D02*
X96500Y-26400D01*
X97000Y-25300D02*
X96500Y-25800D01*
X97350Y-33100D02*
X97350Y-29650D01*
X97350Y-29650D02*
X96500Y-28800D01*
X96500Y-28800D02*
X96500Y-26400D01*
G54D24*
X102100Y-25300D02*
X103700Y-25300D01*
X98100Y-25300D02*
X98300Y-25300D01*
X98300Y-25300D02*
X102100Y-25300D01*
X104300Y-28550D02*
X103850Y-29000D01*
X104300Y-25900D02*
X104300Y-28550D01*
X103700Y-25300D02*
X104300Y-25900D01*
G54D23*
X103900Y-30400D02*
X103900Y-29050D01*
X103900Y-29050D02*
X103850Y-29000D01*
G54D24*
X95100Y-35300D02*
X95100Y-34700D01*
X97350Y-33650D02*
X97350Y-33100D01*
X96700Y-34300D02*
X97350Y-33650D01*
X95500Y-34300D02*
X96700Y-34300D01*
X95100Y-34700D02*
X95500Y-34300D01*
X97350Y-35500D02*
X97350Y-33100D01*
X93900Y-40400D02*
X94400Y-40400D01*
X95100Y-39700D02*
X95100Y-35300D01*
X95100Y-35300D02*
X95100Y-34900D01*
X94400Y-40400D02*
X95100Y-39700D01*
X97350Y-36900D02*
X97900Y-36900D01*
X99400Y-38400D02*
X99900Y-38400D01*
X97900Y-36900D02*
X99400Y-38400D01*
X97350Y-35500D02*
X97350Y-36900D01*
X96400Y-26300D02*
X96400Y-26400D01*
G54D23*
X114700Y-25300D02*
X113400Y-25300D01*
X112900Y-25800D02*
X112900Y-26400D01*
X113400Y-25300D02*
X112900Y-25800D01*
X113750Y-33100D02*
X113750Y-29650D01*
X113750Y-29650D02*
X112900Y-28800D01*
X112900Y-28800D02*
X112900Y-26400D01*
G54D24*
X118500Y-25300D02*
X120100Y-25300D01*
X114500Y-25300D02*
X114700Y-25300D01*
X114700Y-25300D02*
X118500Y-25300D01*
X120700Y-28550D02*
X120250Y-29000D01*
X120700Y-25900D02*
X120700Y-28550D01*
X120100Y-25300D02*
X120700Y-25900D01*
G54D23*
X120300Y-30400D02*
X120300Y-29050D01*
X120300Y-29050D02*
X120250Y-29000D01*
G54D24*
X111500Y-35300D02*
X111500Y-34700D01*
X113750Y-33650D02*
X113750Y-33100D01*
X113100Y-34300D02*
X113750Y-33650D01*
X111900Y-34300D02*
X113100Y-34300D01*
X111500Y-34700D02*
X111900Y-34300D01*
X113750Y-35500D02*
X113750Y-33100D01*
X110300Y-40400D02*
X110800Y-40400D01*
X111500Y-39700D02*
X111500Y-35300D01*
X111500Y-35300D02*
X111500Y-34900D01*
X110800Y-40400D02*
X111500Y-39700D01*
X113750Y-36900D02*
X114300Y-36900D01*
X115800Y-38400D02*
X116300Y-38400D01*
X114300Y-36900D02*
X115800Y-38400D01*
X113750Y-35500D02*
X113750Y-36900D01*
X112800Y-26300D02*
X112800Y-26400D01*
G54D23*
X114700Y-55200D02*
X113400Y-55200D01*
X112900Y-55700D02*
X112900Y-56300D01*
X113400Y-55200D02*
X112900Y-55700D01*
X113750Y-63000D02*
X113750Y-59550D01*
X113750Y-59550D02*
X112900Y-58700D01*
X112900Y-58700D02*
X112900Y-56300D01*
G54D24*
X118500Y-55200D02*
X120100Y-55200D01*
X114500Y-55200D02*
X114700Y-55200D01*
X114700Y-55200D02*
X118500Y-55200D01*
X120700Y-58450D02*
X120250Y-58900D01*
X120700Y-55800D02*
X120700Y-58450D01*
X120100Y-55200D02*
X120700Y-55800D01*
G54D23*
X120300Y-60300D02*
X120300Y-58950D01*
X120300Y-58950D02*
X120250Y-58900D01*
G54D24*
X111500Y-65200D02*
X111500Y-64600D01*
X113750Y-63550D02*
X113750Y-63000D01*
X113100Y-64200D02*
X113750Y-63550D01*
X111900Y-64200D02*
X113100Y-64200D01*
X111500Y-64600D02*
X111900Y-64200D01*
X113750Y-65400D02*
X113750Y-63000D01*
X110300Y-70300D02*
X110800Y-70300D01*
X111500Y-69600D02*
X111500Y-65200D01*
X111500Y-65200D02*
X111500Y-64800D01*
X110800Y-70300D02*
X111500Y-69600D01*
X113750Y-66800D02*
X114300Y-66800D01*
X115800Y-68300D02*
X116300Y-68300D01*
X114300Y-66800D02*
X115800Y-68300D01*
X113750Y-65400D02*
X113750Y-66800D01*
X112800Y-56200D02*
X112800Y-56300D01*
G54D23*
X98300Y-55200D02*
X97000Y-55200D01*
X96500Y-55700D02*
X96500Y-56300D01*
X97000Y-55200D02*
X96500Y-55700D01*
X97350Y-63000D02*
X97350Y-59550D01*
X97350Y-59550D02*
X96500Y-58700D01*
X96500Y-58700D02*
X96500Y-56300D01*
G54D24*
X102100Y-55200D02*
X103700Y-55200D01*
X98100Y-55200D02*
X98300Y-55200D01*
X98300Y-55200D02*
X102100Y-55200D01*
X104300Y-58450D02*
X103850Y-58900D01*
X104300Y-55800D02*
X104300Y-58450D01*
X103700Y-55200D02*
X104300Y-55800D01*
G54D23*
X103900Y-60300D02*
X103900Y-58950D01*
X103900Y-58950D02*
X103850Y-58900D01*
G54D24*
X95100Y-65200D02*
X95100Y-64600D01*
X97350Y-63550D02*
X97350Y-63000D01*
X96700Y-64200D02*
X97350Y-63550D01*
X95500Y-64200D02*
X96700Y-64200D01*
X95100Y-64600D02*
X95500Y-64200D01*
X97350Y-65400D02*
X97350Y-63000D01*
X93900Y-70300D02*
X94400Y-70300D01*
X95100Y-69600D02*
X95100Y-65200D01*
X95100Y-65200D02*
X95100Y-64800D01*
X94400Y-70300D02*
X95100Y-69600D01*
X97350Y-66800D02*
X97900Y-66800D01*
X99400Y-68300D02*
X99900Y-68300D01*
X97900Y-66800D02*
X99400Y-68300D01*
X97350Y-65400D02*
X97350Y-66800D01*
X96400Y-56200D02*
X96400Y-56300D01*
G54D23*
X82000Y-25300D02*
X80700Y-25300D01*
X80200Y-25800D02*
X80200Y-26400D01*
X80700Y-25300D02*
X80200Y-25800D01*
X81050Y-33100D02*
X81050Y-29650D01*
X81050Y-29650D02*
X80200Y-28800D01*
X80200Y-28800D02*
X80200Y-26400D01*
G54D24*
X85800Y-25300D02*
X87400Y-25300D01*
X81800Y-25300D02*
X82000Y-25300D01*
X82000Y-25300D02*
X85800Y-25300D01*
X88000Y-28550D02*
X87550Y-29000D01*
X88000Y-25900D02*
X88000Y-28550D01*
X87400Y-25300D02*
X88000Y-25900D01*
G54D23*
X87600Y-30400D02*
X87600Y-29050D01*
X87600Y-29050D02*
X87550Y-29000D01*
G54D24*
X78800Y-35300D02*
X78800Y-34700D01*
X81050Y-33650D02*
X81050Y-33100D01*
X80400Y-34300D02*
X81050Y-33650D01*
X79200Y-34300D02*
X80400Y-34300D01*
X78800Y-34700D02*
X79200Y-34300D01*
X81050Y-35500D02*
X81050Y-33100D01*
X77600Y-40400D02*
X78100Y-40400D01*
X78800Y-39700D02*
X78800Y-35300D01*
X78800Y-35300D02*
X78800Y-34900D01*
X78100Y-40400D02*
X78800Y-39700D01*
X81050Y-36900D02*
X81600Y-36900D01*
X83100Y-38400D02*
X83600Y-38400D01*
X81600Y-36900D02*
X83100Y-38400D01*
X81050Y-35500D02*
X81050Y-36900D01*
X80100Y-26300D02*
X80100Y-26400D01*
G54D23*
X49100Y-55200D02*
X47800Y-55200D01*
X47300Y-55700D02*
X47300Y-56300D01*
X47800Y-55200D02*
X47300Y-55700D01*
X48150Y-63000D02*
X48150Y-59550D01*
X48150Y-59550D02*
X47300Y-58700D01*
X47300Y-58700D02*
X47300Y-56300D01*
G54D24*
X52900Y-55200D02*
X54500Y-55200D01*
X48900Y-55200D02*
X49100Y-55200D01*
X49100Y-55200D02*
X52900Y-55200D01*
X55100Y-58450D02*
X54650Y-58900D01*
X55100Y-55800D02*
X55100Y-58450D01*
X54500Y-55200D02*
X55100Y-55800D01*
G54D23*
X54700Y-60300D02*
X54700Y-58950D01*
X54700Y-58950D02*
X54650Y-58900D01*
G54D24*
X45900Y-65200D02*
X45900Y-64600D01*
X48150Y-63550D02*
X48150Y-63000D01*
X47500Y-64200D02*
X48150Y-63550D01*
X46300Y-64200D02*
X47500Y-64200D01*
X45900Y-64600D02*
X46300Y-64200D01*
X48150Y-65400D02*
X48150Y-63000D01*
X44700Y-70300D02*
X45200Y-70300D01*
X45900Y-69600D02*
X45900Y-65200D01*
X45900Y-65200D02*
X45900Y-64800D01*
X45200Y-70300D02*
X45900Y-69600D01*
X48150Y-66800D02*
X48700Y-66800D01*
X50200Y-68300D02*
X50700Y-68300D01*
X48700Y-66800D02*
X50200Y-68300D01*
X48150Y-65400D02*
X48150Y-66800D01*
X47200Y-56200D02*
X47200Y-56300D01*
G54D23*
X82000Y-55200D02*
X80700Y-55200D01*
X80200Y-55700D02*
X80200Y-56300D01*
X80700Y-55200D02*
X80200Y-55700D01*
X81050Y-63000D02*
X81050Y-59550D01*
X81050Y-59550D02*
X80200Y-58700D01*
X80200Y-58700D02*
X80200Y-56300D01*
G54D24*
X85800Y-55200D02*
X87400Y-55200D01*
X81800Y-55200D02*
X82000Y-55200D01*
X82000Y-55200D02*
X85800Y-55200D01*
X88000Y-58450D02*
X87550Y-58900D01*
X88000Y-55800D02*
X88000Y-58450D01*
X87400Y-55200D02*
X88000Y-55800D01*
G54D23*
X87600Y-60300D02*
X87600Y-58950D01*
X87600Y-58950D02*
X87550Y-58900D01*
G54D24*
X78800Y-65200D02*
X78800Y-64600D01*
X81050Y-63550D02*
X81050Y-63000D01*
X80400Y-64200D02*
X81050Y-63550D01*
X79200Y-64200D02*
X80400Y-64200D01*
X78800Y-64600D02*
X79200Y-64200D01*
X81050Y-65400D02*
X81050Y-63000D01*
X77600Y-70300D02*
X78100Y-70300D01*
X78800Y-69600D02*
X78800Y-65200D01*
X78800Y-65200D02*
X78800Y-64800D01*
X78100Y-70300D02*
X78800Y-69600D01*
X81050Y-66800D02*
X81600Y-66800D01*
X83100Y-68300D02*
X83600Y-68300D01*
X81600Y-66800D02*
X83100Y-68300D01*
X81050Y-65400D02*
X81050Y-66800D01*
X80100Y-56200D02*
X80100Y-56300D01*
G54D23*
X49100Y-25300D02*
X47800Y-25300D01*
X47300Y-25800D02*
X47300Y-26400D01*
X47800Y-25300D02*
X47300Y-25800D01*
X48150Y-33100D02*
X48150Y-29650D01*
X48150Y-29650D02*
X47300Y-28800D01*
X47300Y-28800D02*
X47300Y-26400D01*
G54D24*
X52900Y-25300D02*
X54500Y-25300D01*
X48900Y-25300D02*
X49100Y-25300D01*
X49100Y-25300D02*
X52900Y-25300D01*
X55100Y-28550D02*
X54650Y-29000D01*
X55100Y-25900D02*
X55100Y-28550D01*
X54500Y-25300D02*
X55100Y-25900D01*
G54D23*
X54700Y-30400D02*
X54700Y-29050D01*
X54700Y-29050D02*
X54650Y-29000D01*
G54D24*
X45900Y-35300D02*
X45900Y-34700D01*
X48150Y-33650D02*
X48150Y-33100D01*
X47500Y-34300D02*
X48150Y-33650D01*
X46300Y-34300D02*
X47500Y-34300D01*
X45900Y-34700D02*
X46300Y-34300D01*
X48150Y-35500D02*
X48150Y-33100D01*
X44700Y-40400D02*
X45200Y-40400D01*
X45900Y-39700D02*
X45900Y-35300D01*
X45900Y-35300D02*
X45900Y-34900D01*
X45200Y-40400D02*
X45900Y-39700D01*
X48150Y-36900D02*
X48700Y-36900D01*
X50200Y-38400D02*
X50700Y-38400D01*
X48700Y-36900D02*
X50200Y-38400D01*
X48150Y-35500D02*
X48150Y-36900D01*
X47200Y-26300D02*
X47200Y-26400D01*
G54D23*
X65600Y-55200D02*
X64300Y-55200D01*
X63800Y-55700D02*
X63800Y-56300D01*
X64300Y-55200D02*
X63800Y-55700D01*
X64650Y-63000D02*
X64650Y-59550D01*
X64650Y-59550D02*
X63800Y-58700D01*
X63800Y-58700D02*
X63800Y-56300D01*
G54D24*
X69400Y-55200D02*
X71000Y-55200D01*
X65400Y-55200D02*
X65600Y-55200D01*
X65600Y-55200D02*
X69400Y-55200D01*
X71600Y-58450D02*
X71150Y-58900D01*
X71600Y-55800D02*
X71600Y-58450D01*
X71000Y-55200D02*
X71600Y-55800D01*
G54D23*
X71200Y-60300D02*
X71200Y-58950D01*
X71200Y-58950D02*
X71150Y-58900D01*
G54D24*
X62400Y-65200D02*
X62400Y-64600D01*
X64650Y-63550D02*
X64650Y-63000D01*
X64000Y-64200D02*
X64650Y-63550D01*
X62800Y-64200D02*
X64000Y-64200D01*
X62400Y-64600D02*
X62800Y-64200D01*
X64650Y-65400D02*
X64650Y-63000D01*
X61200Y-70300D02*
X61700Y-70300D01*
X62400Y-69600D02*
X62400Y-65200D01*
X62400Y-65200D02*
X62400Y-64800D01*
X61700Y-70300D02*
X62400Y-69600D01*
X64650Y-66800D02*
X65200Y-66800D01*
X66700Y-68300D02*
X67200Y-68300D01*
X65200Y-66800D02*
X66700Y-68300D01*
X64650Y-65400D02*
X64650Y-66800D01*
X63700Y-56200D02*
X63700Y-56300D01*
G54D23*
X65600Y-25300D02*
X64300Y-25300D01*
X63800Y-25800D02*
X63800Y-26400D01*
X64300Y-25300D02*
X63800Y-25800D01*
X64650Y-33100D02*
X64650Y-29650D01*
X64650Y-29650D02*
X63800Y-28800D01*
X63800Y-28800D02*
X63800Y-26400D01*
G54D24*
X69400Y-25300D02*
X71000Y-25300D01*
X65400Y-25300D02*
X65600Y-25300D01*
X65600Y-25300D02*
X69400Y-25300D01*
X71600Y-28550D02*
X71150Y-29000D01*
X71600Y-25900D02*
X71600Y-28550D01*
X71000Y-25300D02*
X71600Y-25900D01*
G54D23*
X71200Y-30400D02*
X71200Y-29050D01*
X71200Y-29050D02*
X71150Y-29000D01*
G54D24*
X62400Y-35300D02*
X62400Y-34700D01*
X64650Y-33650D02*
X64650Y-33100D01*
X64000Y-34300D02*
X64650Y-33650D01*
X62800Y-34300D02*
X64000Y-34300D01*
X62400Y-34700D02*
X62800Y-34300D01*
X64650Y-35500D02*
X64650Y-33100D01*
X61200Y-40400D02*
X61700Y-40400D01*
X62400Y-39700D02*
X62400Y-35300D01*
X62400Y-35300D02*
X62400Y-34900D01*
X61700Y-40400D02*
X62400Y-39700D01*
X64650Y-36900D02*
X65200Y-36900D01*
X66700Y-38400D02*
X67200Y-38400D01*
X65200Y-36900D02*
X66700Y-38400D01*
X64650Y-35500D02*
X64650Y-36900D01*
X63700Y-26300D02*
X63700Y-26400D01*
G54D23*
X99500Y-26400D02*
X99500Y-27500D01*
X99500Y-27500D02*
X100900Y-28900D01*
G54D24*
X99900Y-31400D02*
X100300Y-31400D01*
X100300Y-31400D02*
X100900Y-30800D01*
X100900Y-28900D02*
X100900Y-30800D01*
G54D23*
X115900Y-26400D02*
X115900Y-27500D01*
X115900Y-27500D02*
X117300Y-28900D01*
G54D24*
X116300Y-31400D02*
X116700Y-31400D01*
X116700Y-31400D02*
X117300Y-30800D01*
X117300Y-28900D02*
X117300Y-30800D01*
G54D23*
X115900Y-56300D02*
X115900Y-57400D01*
X115900Y-57400D02*
X117300Y-58800D01*
G54D24*
X116300Y-61300D02*
X116700Y-61300D01*
X116700Y-61300D02*
X117300Y-60700D01*
X117300Y-58800D02*
X117300Y-60700D01*
G54D23*
X99500Y-56300D02*
X99500Y-57400D01*
X99500Y-57400D02*
X100900Y-58800D01*
G54D24*
X99900Y-61300D02*
X100300Y-61300D01*
X100300Y-61300D02*
X100900Y-60700D01*
X100900Y-58800D02*
X100900Y-60700D01*
G54D23*
X83200Y-26400D02*
X83200Y-27500D01*
X83200Y-27500D02*
X84600Y-28900D01*
G54D24*
X83600Y-31400D02*
X84000Y-31400D01*
X84000Y-31400D02*
X84600Y-30800D01*
X84600Y-28900D02*
X84600Y-30800D01*
G54D23*
X50300Y-56300D02*
X50300Y-57400D01*
X50300Y-57400D02*
X51700Y-58800D01*
G54D24*
X50700Y-61300D02*
X51100Y-61300D01*
X51100Y-61300D02*
X51700Y-60700D01*
X51700Y-58800D02*
X51700Y-60700D01*
G54D23*
X83200Y-56300D02*
X83200Y-57400D01*
X83200Y-57400D02*
X84600Y-58800D01*
G54D24*
X83600Y-61300D02*
X84000Y-61300D01*
X84000Y-61300D02*
X84600Y-60700D01*
X84600Y-58800D02*
X84600Y-60700D01*
G54D23*
X50300Y-26400D02*
X50300Y-27500D01*
X50300Y-27500D02*
X51700Y-28900D01*
G54D24*
X50700Y-31400D02*
X51100Y-31400D01*
X51100Y-31400D02*
X51700Y-30800D01*
X51700Y-28900D02*
X51700Y-30800D01*
G54D23*
X66800Y-56300D02*
X66800Y-57400D01*
X66800Y-57400D02*
X68200Y-58800D01*
G54D24*
X67200Y-61300D02*
X67600Y-61300D01*
X67600Y-61300D02*
X68200Y-60700D01*
X68200Y-58800D02*
X68200Y-60700D01*
G54D23*
X66800Y-26400D02*
X66800Y-27500D01*
X66800Y-27500D02*
X68200Y-28900D01*
G54D24*
X67200Y-31400D02*
X67600Y-31400D01*
X67600Y-31400D02*
X68200Y-30800D01*
X68200Y-28900D02*
X68200Y-30800D01*
G54D23*
X92496Y-28800D02*
X94700Y-28800D01*
X95500Y-28000D02*
X95500Y-26400D01*
X94700Y-28800D02*
X95500Y-28000D01*
G54D24*
X93900Y-30400D02*
X94800Y-30400D01*
X94800Y-30400D02*
X96050Y-31650D01*
X96050Y-31650D02*
X96050Y-33100D01*
X94000Y-28800D02*
X92496Y-28800D01*
X93200Y-30400D02*
X93900Y-30400D01*
X92700Y-30900D02*
X93200Y-30400D01*
X92700Y-39900D02*
X92700Y-30900D01*
X96050Y-31650D02*
X94800Y-30400D01*
X89900Y-41400D02*
X91200Y-41400D01*
X91200Y-41400D02*
X92700Y-39900D01*
G54D23*
X108896Y-28800D02*
X111100Y-28800D01*
X111900Y-28000D02*
X111900Y-26400D01*
X111100Y-28800D02*
X111900Y-28000D01*
G54D24*
X110300Y-30400D02*
X111200Y-30400D01*
X111200Y-30400D02*
X112450Y-31650D01*
X112450Y-31650D02*
X112450Y-33100D01*
X110400Y-28800D02*
X108896Y-28800D01*
X109600Y-30400D02*
X110300Y-30400D01*
X109100Y-30900D02*
X109600Y-30400D01*
X109100Y-39900D02*
X109100Y-30900D01*
X112450Y-31650D02*
X111200Y-30400D01*
X106300Y-41400D02*
X107600Y-41400D01*
X107600Y-41400D02*
X109100Y-39900D01*
G54D23*
X108896Y-58700D02*
X111100Y-58700D01*
X111900Y-57900D02*
X111900Y-56300D01*
X111100Y-58700D02*
X111900Y-57900D01*
G54D24*
X110300Y-60300D02*
X111200Y-60300D01*
X111200Y-60300D02*
X112450Y-61550D01*
X112450Y-61550D02*
X112450Y-63000D01*
X110400Y-58700D02*
X108896Y-58700D01*
X109600Y-60300D02*
X110300Y-60300D01*
X109100Y-60800D02*
X109600Y-60300D01*
X109100Y-69800D02*
X109100Y-60800D01*
X112450Y-61550D02*
X111200Y-60300D01*
X106300Y-71300D02*
X107600Y-71300D01*
X107600Y-71300D02*
X109100Y-69800D01*
G54D23*
X92496Y-58700D02*
X94700Y-58700D01*
X95500Y-57900D02*
X95500Y-56300D01*
X94700Y-58700D02*
X95500Y-57900D01*
G54D24*
X93900Y-60300D02*
X94800Y-60300D01*
X94800Y-60300D02*
X96050Y-61550D01*
X96050Y-61550D02*
X96050Y-63000D01*
X94000Y-58700D02*
X92496Y-58700D01*
X93200Y-60300D02*
X93900Y-60300D01*
X92700Y-60800D02*
X93200Y-60300D01*
X92700Y-69800D02*
X92700Y-60800D01*
X96050Y-61550D02*
X94800Y-60300D01*
X89900Y-71300D02*
X91200Y-71300D01*
X91200Y-71300D02*
X92700Y-69800D01*
G54D23*
X76196Y-28800D02*
X78400Y-28800D01*
X79200Y-28000D02*
X79200Y-26400D01*
X78400Y-28800D02*
X79200Y-28000D01*
G54D24*
X77600Y-30400D02*
X78500Y-30400D01*
X78500Y-30400D02*
X79750Y-31650D01*
X79750Y-31650D02*
X79750Y-33100D01*
X77700Y-28800D02*
X76196Y-28800D01*
X76900Y-30400D02*
X77600Y-30400D01*
X76400Y-30900D02*
X76900Y-30400D01*
X76400Y-39900D02*
X76400Y-30900D01*
X79750Y-31650D02*
X78500Y-30400D01*
X73600Y-41400D02*
X74900Y-41400D01*
X74900Y-41400D02*
X76400Y-39900D01*
G54D23*
X43296Y-58700D02*
X45500Y-58700D01*
X46300Y-57900D02*
X46300Y-56300D01*
X45500Y-58700D02*
X46300Y-57900D01*
G54D24*
X44700Y-60300D02*
X45600Y-60300D01*
X45600Y-60300D02*
X46850Y-61550D01*
X46850Y-61550D02*
X46850Y-63000D01*
X44800Y-58700D02*
X43296Y-58700D01*
X44000Y-60300D02*
X44700Y-60300D01*
X43500Y-60800D02*
X44000Y-60300D01*
X43500Y-69800D02*
X43500Y-60800D01*
X46850Y-61550D02*
X45600Y-60300D01*
X40700Y-71300D02*
X42000Y-71300D01*
X42000Y-71300D02*
X43500Y-69800D01*
G54D23*
X76196Y-58700D02*
X78400Y-58700D01*
X79200Y-57900D02*
X79200Y-56300D01*
X78400Y-58700D02*
X79200Y-57900D01*
G54D24*
X77600Y-60300D02*
X78500Y-60300D01*
X78500Y-60300D02*
X79750Y-61550D01*
X79750Y-61550D02*
X79750Y-63000D01*
X77700Y-58700D02*
X76196Y-58700D01*
X76900Y-60300D02*
X77600Y-60300D01*
X76400Y-60800D02*
X76900Y-60300D01*
X76400Y-69800D02*
X76400Y-60800D01*
X79750Y-61550D02*
X78500Y-60300D01*
X73600Y-71300D02*
X74900Y-71300D01*
X74900Y-71300D02*
X76400Y-69800D01*
G54D23*
X43296Y-28800D02*
X45500Y-28800D01*
X46300Y-28000D02*
X46300Y-26400D01*
X45500Y-28800D02*
X46300Y-28000D01*
G54D24*
X44700Y-30400D02*
X45600Y-30400D01*
X45600Y-30400D02*
X46850Y-31650D01*
X46850Y-31650D02*
X46850Y-33100D01*
X44800Y-28800D02*
X43296Y-28800D01*
X44000Y-30400D02*
X44700Y-30400D01*
X43500Y-30900D02*
X44000Y-30400D01*
X43500Y-39900D02*
X43500Y-30900D01*
X46850Y-31650D02*
X45600Y-30400D01*
X40700Y-41400D02*
X42000Y-41400D01*
X42000Y-41400D02*
X43500Y-39900D01*
G54D23*
X59796Y-58700D02*
X62000Y-58700D01*
X62800Y-57900D02*
X62800Y-56300D01*
X62000Y-58700D02*
X62800Y-57900D01*
G54D24*
X61200Y-60300D02*
X62100Y-60300D01*
X62100Y-60300D02*
X63350Y-61550D01*
X63350Y-61550D02*
X63350Y-63000D01*
X61300Y-58700D02*
X59796Y-58700D01*
X60500Y-60300D02*
X61200Y-60300D01*
X60000Y-60800D02*
X60500Y-60300D01*
X60000Y-69800D02*
X60000Y-60800D01*
X63350Y-61550D02*
X62100Y-60300D01*
X57200Y-71300D02*
X58500Y-71300D01*
X58500Y-71300D02*
X60000Y-69800D01*
G54D23*
X59796Y-28800D02*
X62000Y-28800D01*
X62800Y-28000D02*
X62800Y-26400D01*
X62000Y-28800D02*
X62800Y-28000D01*
G54D24*
X61200Y-30400D02*
X62100Y-30400D01*
X62100Y-30400D02*
X63350Y-31650D01*
X63350Y-31650D02*
X63350Y-33100D01*
X61300Y-28800D02*
X59796Y-28800D01*
X60500Y-30400D02*
X61200Y-30400D01*
X60000Y-30900D02*
X60500Y-30400D01*
X60000Y-39900D02*
X60000Y-30900D01*
X63350Y-31650D02*
X62100Y-30400D01*
X57200Y-41400D02*
X58500Y-41400D01*
X58500Y-41400D02*
X60000Y-39900D01*
X91850Y-52900D02*
X91850Y-52950D01*
X91850Y-52950D02*
X90900Y-53900D01*
X89900Y-49400D02*
X89900Y-52900D01*
X89900Y-52900D02*
X90900Y-53900D01*
X90900Y-53900D02*
X102300Y-53900D01*
X101600Y-44400D02*
X99900Y-44400D01*
X102900Y-45700D02*
X101600Y-44400D01*
X102900Y-53300D02*
X102900Y-45700D01*
X102300Y-53900D02*
X102900Y-53300D01*
X108250Y-52900D02*
X108250Y-52950D01*
X108250Y-52950D02*
X107300Y-53900D01*
X106300Y-49400D02*
X106300Y-52900D01*
X106300Y-52900D02*
X107300Y-53900D01*
X107300Y-53900D02*
X118700Y-53900D01*
X118000Y-44400D02*
X116300Y-44400D01*
X119300Y-45700D02*
X118000Y-44400D01*
X119300Y-53300D02*
X119300Y-45700D01*
X118700Y-53900D02*
X119300Y-53300D01*
X108250Y-82800D02*
X108250Y-82850D01*
X108250Y-82850D02*
X107300Y-83800D01*
X106300Y-79300D02*
X106300Y-82800D01*
X106300Y-82800D02*
X107300Y-83800D01*
X107300Y-83800D02*
X118700Y-83800D01*
X118000Y-74300D02*
X116300Y-74300D01*
X119300Y-75600D02*
X118000Y-74300D01*
X119300Y-83200D02*
X119300Y-75600D01*
X118700Y-83800D02*
X119300Y-83200D01*
X91850Y-82800D02*
X91850Y-82850D01*
X91850Y-82850D02*
X90900Y-83800D01*
X89900Y-79300D02*
X89900Y-82800D01*
X89900Y-82800D02*
X90900Y-83800D01*
X90900Y-83800D02*
X102300Y-83800D01*
X101600Y-74300D02*
X99900Y-74300D01*
X102900Y-75600D02*
X101600Y-74300D01*
X102900Y-83200D02*
X102900Y-75600D01*
X102300Y-83800D02*
X102900Y-83200D01*
X75550Y-52900D02*
X75550Y-52950D01*
X75550Y-52950D02*
X74600Y-53900D01*
X73600Y-49400D02*
X73600Y-52900D01*
X73600Y-52900D02*
X74600Y-53900D01*
X74600Y-53900D02*
X86000Y-53900D01*
X85300Y-44400D02*
X83600Y-44400D01*
X86600Y-45700D02*
X85300Y-44400D01*
X86600Y-53300D02*
X86600Y-45700D01*
X86000Y-53900D02*
X86600Y-53300D01*
X42650Y-82800D02*
X42650Y-82850D01*
X42650Y-82850D02*
X41700Y-83800D01*
X40700Y-79300D02*
X40700Y-82800D01*
X40700Y-82800D02*
X41700Y-83800D01*
X41700Y-83800D02*
X53100Y-83800D01*
X52400Y-74300D02*
X50700Y-74300D01*
X53700Y-75600D02*
X52400Y-74300D01*
X53700Y-83200D02*
X53700Y-75600D01*
X53100Y-83800D02*
X53700Y-83200D01*
X75550Y-82800D02*
X75550Y-82850D01*
X75550Y-82850D02*
X74600Y-83800D01*
X73600Y-79300D02*
X73600Y-82800D01*
X73600Y-82800D02*
X74600Y-83800D01*
X74600Y-83800D02*
X86000Y-83800D01*
X85300Y-74300D02*
X83600Y-74300D01*
X86600Y-75600D02*
X85300Y-74300D01*
X86600Y-83200D02*
X86600Y-75600D01*
X86000Y-83800D02*
X86600Y-83200D01*
X42650Y-52900D02*
X42650Y-52950D01*
X42650Y-52950D02*
X41700Y-53900D01*
X40700Y-49400D02*
X40700Y-52900D01*
X40700Y-52900D02*
X41700Y-53900D01*
X41700Y-53900D02*
X53100Y-53900D01*
X52400Y-44400D02*
X50700Y-44400D01*
X53700Y-45700D02*
X52400Y-44400D01*
X53700Y-53300D02*
X53700Y-45700D01*
X53100Y-53900D02*
X53700Y-53300D01*
X59150Y-82800D02*
X59150Y-82850D01*
X59150Y-82850D02*
X58200Y-83800D01*
X57200Y-79300D02*
X57200Y-82800D01*
X57200Y-82800D02*
X58200Y-83800D01*
X58200Y-83800D02*
X69600Y-83800D01*
X68900Y-74300D02*
X67200Y-74300D01*
X70200Y-75600D02*
X68900Y-74300D01*
X70200Y-83200D02*
X70200Y-75600D01*
X69600Y-83800D02*
X70200Y-83200D01*
X59150Y-52900D02*
X59150Y-52950D01*
X59150Y-52950D02*
X58200Y-53900D01*
X57200Y-49400D02*
X57200Y-52900D01*
X57200Y-52900D02*
X58200Y-53900D01*
X58200Y-53900D02*
X69600Y-53900D01*
X68900Y-44400D02*
X67200Y-44400D01*
X70200Y-45700D02*
X68900Y-44400D01*
X70200Y-53300D02*
X70200Y-45700D01*
X69600Y-53900D02*
X70200Y-53300D01*
X96250Y-52900D02*
X96250Y-52650D01*
X96250Y-52650D02*
X95500Y-51900D01*
X90400Y-48400D02*
X89900Y-48400D01*
X90900Y-48900D02*
X90400Y-48400D01*
X90900Y-50500D02*
X90900Y-48900D01*
X92300Y-51900D02*
X90900Y-50500D01*
X101300Y-51900D02*
X95500Y-51900D01*
X95500Y-51900D02*
X92300Y-51900D01*
X102100Y-51100D02*
X101300Y-51900D01*
X102100Y-46100D02*
X102100Y-51100D01*
X99900Y-45400D02*
X101400Y-45400D01*
X101400Y-45400D02*
X102100Y-46100D01*
X112650Y-52900D02*
X112650Y-52650D01*
X112650Y-52650D02*
X111900Y-51900D01*
X106800Y-48400D02*
X106300Y-48400D01*
X107300Y-48900D02*
X106800Y-48400D01*
X107300Y-50500D02*
X107300Y-48900D01*
X108700Y-51900D02*
X107300Y-50500D01*
X117700Y-51900D02*
X111900Y-51900D01*
X111900Y-51900D02*
X108700Y-51900D01*
X118500Y-51100D02*
X117700Y-51900D01*
X118500Y-46100D02*
X118500Y-51100D01*
X116300Y-45400D02*
X117800Y-45400D01*
X117800Y-45400D02*
X118500Y-46100D01*
X112650Y-82800D02*
X112650Y-82550D01*
X112650Y-82550D02*
X111900Y-81800D01*
X106800Y-78300D02*
X106300Y-78300D01*
X107300Y-78800D02*
X106800Y-78300D01*
X107300Y-80400D02*
X107300Y-78800D01*
X108700Y-81800D02*
X107300Y-80400D01*
X117700Y-81800D02*
X111900Y-81800D01*
X111900Y-81800D02*
X108700Y-81800D01*
X118500Y-81000D02*
X117700Y-81800D01*
X118500Y-76000D02*
X118500Y-81000D01*
X116300Y-75300D02*
X117800Y-75300D01*
X117800Y-75300D02*
X118500Y-76000D01*
X96250Y-82800D02*
X96250Y-82550D01*
X96250Y-82550D02*
X95500Y-81800D01*
X90400Y-78300D02*
X89900Y-78300D01*
X90900Y-78800D02*
X90400Y-78300D01*
X90900Y-80400D02*
X90900Y-78800D01*
X92300Y-81800D02*
X90900Y-80400D01*
X101300Y-81800D02*
X95500Y-81800D01*
X95500Y-81800D02*
X92300Y-81800D01*
X102100Y-81000D02*
X101300Y-81800D01*
X102100Y-76000D02*
X102100Y-81000D01*
X99900Y-75300D02*
X101400Y-75300D01*
X101400Y-75300D02*
X102100Y-76000D01*
X79950Y-52900D02*
X79950Y-52650D01*
X79950Y-52650D02*
X79200Y-51900D01*
X74100Y-48400D02*
X73600Y-48400D01*
X74600Y-48900D02*
X74100Y-48400D01*
X74600Y-50500D02*
X74600Y-48900D01*
X76000Y-51900D02*
X74600Y-50500D01*
X85000Y-51900D02*
X79200Y-51900D01*
X79200Y-51900D02*
X76000Y-51900D01*
X85800Y-51100D02*
X85000Y-51900D01*
X85800Y-46100D02*
X85800Y-51100D01*
X83600Y-45400D02*
X85100Y-45400D01*
X85100Y-45400D02*
X85800Y-46100D01*
X47050Y-82800D02*
X47050Y-82550D01*
X47050Y-82550D02*
X46300Y-81800D01*
X41200Y-78300D02*
X40700Y-78300D01*
X41700Y-78800D02*
X41200Y-78300D01*
X41700Y-80400D02*
X41700Y-78800D01*
X43100Y-81800D02*
X41700Y-80400D01*
X52100Y-81800D02*
X46300Y-81800D01*
X46300Y-81800D02*
X43100Y-81800D01*
X52900Y-81000D02*
X52100Y-81800D01*
X52900Y-76000D02*
X52900Y-81000D01*
X50700Y-75300D02*
X52200Y-75300D01*
X52200Y-75300D02*
X52900Y-76000D01*
X79950Y-82800D02*
X79950Y-82550D01*
X79950Y-82550D02*
X79200Y-81800D01*
X74100Y-78300D02*
X73600Y-78300D01*
X74600Y-78800D02*
X74100Y-78300D01*
X74600Y-80400D02*
X74600Y-78800D01*
X76000Y-81800D02*
X74600Y-80400D01*
X85000Y-81800D02*
X79200Y-81800D01*
X79200Y-81800D02*
X76000Y-81800D01*
X85800Y-81000D02*
X85000Y-81800D01*
X85800Y-76000D02*
X85800Y-81000D01*
X83600Y-75300D02*
X85100Y-75300D01*
X85100Y-75300D02*
X85800Y-76000D01*
X47050Y-52900D02*
X47050Y-52650D01*
X47050Y-52650D02*
X46300Y-51900D01*
X41200Y-48400D02*
X40700Y-48400D01*
X41700Y-48900D02*
X41200Y-48400D01*
X41700Y-50500D02*
X41700Y-48900D01*
X43100Y-51900D02*
X41700Y-50500D01*
X52100Y-51900D02*
X46300Y-51900D01*
X46300Y-51900D02*
X43100Y-51900D01*
X52900Y-51100D02*
X52100Y-51900D01*
X52900Y-46100D02*
X52900Y-51100D01*
X50700Y-45400D02*
X52200Y-45400D01*
X52200Y-45400D02*
X52900Y-46100D01*
X63550Y-82800D02*
X63550Y-82550D01*
X63550Y-82550D02*
X62800Y-81800D01*
X57700Y-78300D02*
X57200Y-78300D01*
X58200Y-78800D02*
X57700Y-78300D01*
X58200Y-80400D02*
X58200Y-78800D01*
X59600Y-81800D02*
X58200Y-80400D01*
X68600Y-81800D02*
X62800Y-81800D01*
X62800Y-81800D02*
X59600Y-81800D01*
X69400Y-81000D02*
X68600Y-81800D01*
X69400Y-76000D02*
X69400Y-81000D01*
X67200Y-75300D02*
X68700Y-75300D01*
X68700Y-75300D02*
X69400Y-76000D01*
X63550Y-52900D02*
X63550Y-52650D01*
X63550Y-52650D02*
X62800Y-51900D01*
X57700Y-48400D02*
X57200Y-48400D01*
X58200Y-48900D02*
X57700Y-48400D01*
X58200Y-50500D02*
X58200Y-48900D01*
X59600Y-51900D02*
X58200Y-50500D01*
X68600Y-51900D02*
X62800Y-51900D01*
X62800Y-51900D02*
X59600Y-51900D01*
X69400Y-51100D02*
X68600Y-51900D01*
X69400Y-46100D02*
X69400Y-51100D01*
X67200Y-45400D02*
X68700Y-45400D01*
X68700Y-45400D02*
X69400Y-46100D01*
X101350Y-52900D02*
X102100Y-52900D01*
X93000Y-41400D02*
X93900Y-41400D01*
X92100Y-42300D02*
X93000Y-41400D01*
X92100Y-45900D02*
X92100Y-42300D01*
X91500Y-46500D02*
X92100Y-45900D01*
X96250Y-48300D02*
X96250Y-49050D01*
X96250Y-49050D02*
X97100Y-49900D01*
G54D25*
X103900Y-31400D02*
X102900Y-31400D01*
X102950Y-26150D02*
X103100Y-26150D01*
X101600Y-27500D02*
X102950Y-26150D01*
X101600Y-30100D02*
X101600Y-27500D01*
X102900Y-31400D02*
X101600Y-30100D01*
G54D24*
X93900Y-41400D02*
X95750Y-41400D01*
X95750Y-41400D02*
X96250Y-41900D01*
X98700Y-46300D02*
X98700Y-49100D01*
X98700Y-49100D02*
X97900Y-49900D01*
X97900Y-49900D02*
X97100Y-49900D01*
G54D23*
X96050Y-36900D02*
X96050Y-39650D01*
X96250Y-39850D02*
X96250Y-41900D01*
X96050Y-39650D02*
X96250Y-39850D01*
G54D26*
X99900Y-39400D02*
X101000Y-39400D01*
X101000Y-39400D02*
X102300Y-38100D01*
G54D24*
X98700Y-40100D02*
X99400Y-39400D01*
X98700Y-46500D02*
X98700Y-46300D01*
X98700Y-46300D02*
X98700Y-40100D01*
X99400Y-39400D02*
X99900Y-39400D01*
X99900Y-39400D02*
X99400Y-39400D01*
X96050Y-37650D02*
X96050Y-36900D01*
X96700Y-38300D02*
X96050Y-37650D01*
X98300Y-38300D02*
X96700Y-38300D01*
X99400Y-39400D02*
X98300Y-38300D01*
X96050Y-36900D02*
X96050Y-39700D01*
X96050Y-35500D02*
X96050Y-36900D01*
G54D26*
X103400Y-31400D02*
X103900Y-31400D01*
X102300Y-32500D02*
X103400Y-31400D01*
X102300Y-38100D02*
X102300Y-32500D01*
G54D24*
X117750Y-52900D02*
X118500Y-52900D01*
X109400Y-41400D02*
X110300Y-41400D01*
X108500Y-42300D02*
X109400Y-41400D01*
X108500Y-45900D02*
X108500Y-42300D01*
X107900Y-46500D02*
X108500Y-45900D01*
X112650Y-48300D02*
X112650Y-49050D01*
X112650Y-49050D02*
X113500Y-49900D01*
G54D25*
X120300Y-31400D02*
X119300Y-31400D01*
X119350Y-26150D02*
X119500Y-26150D01*
X118000Y-27500D02*
X119350Y-26150D01*
X118000Y-30100D02*
X118000Y-27500D01*
X119300Y-31400D02*
X118000Y-30100D01*
G54D24*
X110300Y-41400D02*
X112150Y-41400D01*
X112150Y-41400D02*
X112650Y-41900D01*
X115100Y-46300D02*
X115100Y-49100D01*
X115100Y-49100D02*
X114300Y-49900D01*
X114300Y-49900D02*
X113500Y-49900D01*
G54D23*
X112450Y-36900D02*
X112450Y-39650D01*
X112650Y-39850D02*
X112650Y-41900D01*
X112450Y-39650D02*
X112650Y-39850D01*
G54D26*
X116300Y-39400D02*
X117400Y-39400D01*
X117400Y-39400D02*
X118700Y-38100D01*
G54D24*
X115100Y-40100D02*
X115800Y-39400D01*
X115100Y-46500D02*
X115100Y-46300D01*
X115100Y-46300D02*
X115100Y-40100D01*
X115800Y-39400D02*
X116300Y-39400D01*
X116300Y-39400D02*
X115800Y-39400D01*
X112450Y-37650D02*
X112450Y-36900D01*
X113100Y-38300D02*
X112450Y-37650D01*
X114700Y-38300D02*
X113100Y-38300D01*
X115800Y-39400D02*
X114700Y-38300D01*
X112450Y-36900D02*
X112450Y-39700D01*
X112450Y-35500D02*
X112450Y-36900D01*
G54D26*
X119800Y-31400D02*
X120300Y-31400D01*
X118700Y-32500D02*
X119800Y-31400D01*
X118700Y-38100D02*
X118700Y-32500D01*
G54D24*
X117750Y-82800D02*
X118500Y-82800D01*
X109400Y-71300D02*
X110300Y-71300D01*
X108500Y-72200D02*
X109400Y-71300D01*
X108500Y-75800D02*
X108500Y-72200D01*
X107900Y-76400D02*
X108500Y-75800D01*
X112650Y-78200D02*
X112650Y-78950D01*
X112650Y-78950D02*
X113500Y-79800D01*
G54D25*
X120300Y-61300D02*
X119300Y-61300D01*
X119350Y-56050D02*
X119500Y-56050D01*
X118000Y-57400D02*
X119350Y-56050D01*
X118000Y-60000D02*
X118000Y-57400D01*
X119300Y-61300D02*
X118000Y-60000D01*
G54D24*
X110300Y-71300D02*
X112150Y-71300D01*
X112150Y-71300D02*
X112650Y-71800D01*
X115100Y-76200D02*
X115100Y-79000D01*
X115100Y-79000D02*
X114300Y-79800D01*
X114300Y-79800D02*
X113500Y-79800D01*
G54D23*
X112450Y-66800D02*
X112450Y-69550D01*
X112650Y-69750D02*
X112650Y-71800D01*
X112450Y-69550D02*
X112650Y-69750D01*
G54D26*
X116300Y-69300D02*
X117400Y-69300D01*
X117400Y-69300D02*
X118700Y-68000D01*
G54D24*
X115100Y-70000D02*
X115800Y-69300D01*
X115100Y-76400D02*
X115100Y-76200D01*
X115100Y-76200D02*
X115100Y-70000D01*
X115800Y-69300D02*
X116300Y-69300D01*
X116300Y-69300D02*
X115800Y-69300D01*
X112450Y-67550D02*
X112450Y-66800D01*
X113100Y-68200D02*
X112450Y-67550D01*
X114700Y-68200D02*
X113100Y-68200D01*
X115800Y-69300D02*
X114700Y-68200D01*
X112450Y-66800D02*
X112450Y-69600D01*
X112450Y-65400D02*
X112450Y-66800D01*
G54D26*
X119800Y-61300D02*
X120300Y-61300D01*
X118700Y-62400D02*
X119800Y-61300D01*
X118700Y-68000D02*
X118700Y-62400D01*
G54D24*
X101350Y-82800D02*
X102100Y-82800D01*
X93000Y-71300D02*
X93900Y-71300D01*
X92100Y-72200D02*
X93000Y-71300D01*
X92100Y-75800D02*
X92100Y-72200D01*
X91500Y-76400D02*
X92100Y-75800D01*
X96250Y-78200D02*
X96250Y-78950D01*
X96250Y-78950D02*
X97100Y-79800D01*
G54D25*
X103900Y-61300D02*
X102900Y-61300D01*
X102950Y-56050D02*
X103100Y-56050D01*
X101600Y-57400D02*
X102950Y-56050D01*
X101600Y-60000D02*
X101600Y-57400D01*
X102900Y-61300D02*
X101600Y-60000D01*
G54D24*
X93900Y-71300D02*
X95750Y-71300D01*
X95750Y-71300D02*
X96250Y-71800D01*
X98700Y-76200D02*
X98700Y-79000D01*
X98700Y-79000D02*
X97900Y-79800D01*
X97900Y-79800D02*
X97100Y-79800D01*
G54D23*
X96050Y-66800D02*
X96050Y-69550D01*
X96250Y-69750D02*
X96250Y-71800D01*
X96050Y-69550D02*
X96250Y-69750D01*
G54D26*
X99900Y-69300D02*
X101000Y-69300D01*
X101000Y-69300D02*
X102300Y-68000D01*
G54D24*
X98700Y-70000D02*
X99400Y-69300D01*
X98700Y-76400D02*
X98700Y-76200D01*
X98700Y-76200D02*
X98700Y-70000D01*
X99400Y-69300D02*
X99900Y-69300D01*
X99900Y-69300D02*
X99400Y-69300D01*
X96050Y-67550D02*
X96050Y-66800D01*
X96700Y-68200D02*
X96050Y-67550D01*
X98300Y-68200D02*
X96700Y-68200D01*
X99400Y-69300D02*
X98300Y-68200D01*
X96050Y-66800D02*
X96050Y-69600D01*
X96050Y-65400D02*
X96050Y-66800D01*
G54D26*
X103400Y-61300D02*
X103900Y-61300D01*
X102300Y-62400D02*
X103400Y-61300D01*
X102300Y-68000D02*
X102300Y-62400D01*
G54D24*
X85050Y-52900D02*
X85800Y-52900D01*
X76700Y-41400D02*
X77600Y-41400D01*
X75800Y-42300D02*
X76700Y-41400D01*
X75800Y-45900D02*
X75800Y-42300D01*
X75200Y-46500D02*
X75800Y-45900D01*
X79950Y-48300D02*
X79950Y-49050D01*
X79950Y-49050D02*
X80800Y-49900D01*
G54D25*
X87600Y-31400D02*
X86600Y-31400D01*
X86650Y-26150D02*
X86800Y-26150D01*
X85300Y-27500D02*
X86650Y-26150D01*
X85300Y-30100D02*
X85300Y-27500D01*
X86600Y-31400D02*
X85300Y-30100D01*
G54D24*
X77600Y-41400D02*
X79450Y-41400D01*
X79450Y-41400D02*
X79950Y-41900D01*
X82400Y-46300D02*
X82400Y-49100D01*
X82400Y-49100D02*
X81600Y-49900D01*
X81600Y-49900D02*
X80800Y-49900D01*
G54D23*
X79750Y-36900D02*
X79750Y-39650D01*
X79950Y-39850D02*
X79950Y-41900D01*
X79750Y-39650D02*
X79950Y-39850D01*
G54D26*
X83600Y-39400D02*
X84700Y-39400D01*
X84700Y-39400D02*
X86000Y-38100D01*
G54D24*
X82400Y-40100D02*
X83100Y-39400D01*
X82400Y-46500D02*
X82400Y-46300D01*
X82400Y-46300D02*
X82400Y-40100D01*
X83100Y-39400D02*
X83600Y-39400D01*
X83600Y-39400D02*
X83100Y-39400D01*
X79750Y-37650D02*
X79750Y-36900D01*
X80400Y-38300D02*
X79750Y-37650D01*
X82000Y-38300D02*
X80400Y-38300D01*
X83100Y-39400D02*
X82000Y-38300D01*
X79750Y-36900D02*
X79750Y-39700D01*
X79750Y-35500D02*
X79750Y-36900D01*
G54D26*
X87100Y-31400D02*
X87600Y-31400D01*
X86000Y-32500D02*
X87100Y-31400D01*
X86000Y-38100D02*
X86000Y-32500D01*
G54D24*
X52150Y-82800D02*
X52900Y-82800D01*
X43800Y-71300D02*
X44700Y-71300D01*
X42900Y-72200D02*
X43800Y-71300D01*
X42900Y-75800D02*
X42900Y-72200D01*
X42300Y-76400D02*
X42900Y-75800D01*
X47050Y-78200D02*
X47050Y-78950D01*
X47050Y-78950D02*
X47900Y-79800D01*
G54D25*
X54700Y-61300D02*
X53700Y-61300D01*
X53750Y-56050D02*
X53900Y-56050D01*
X52400Y-57400D02*
X53750Y-56050D01*
X52400Y-60000D02*
X52400Y-57400D01*
X53700Y-61300D02*
X52400Y-60000D01*
G54D24*
X44700Y-71300D02*
X46550Y-71300D01*
X46550Y-71300D02*
X47050Y-71800D01*
X49500Y-76200D02*
X49500Y-79000D01*
X49500Y-79000D02*
X48700Y-79800D01*
X48700Y-79800D02*
X47900Y-79800D01*
G54D23*
X46850Y-66800D02*
X46850Y-69550D01*
X47050Y-69750D02*
X47050Y-71800D01*
X46850Y-69550D02*
X47050Y-69750D01*
G54D26*
X50700Y-69300D02*
X51800Y-69300D01*
X51800Y-69300D02*
X53100Y-68000D01*
G54D24*
X49500Y-70000D02*
X50200Y-69300D01*
X49500Y-76400D02*
X49500Y-76200D01*
X49500Y-76200D02*
X49500Y-70000D01*
X50200Y-69300D02*
X50700Y-69300D01*
X50700Y-69300D02*
X50200Y-69300D01*
X46850Y-67550D02*
X46850Y-66800D01*
X47500Y-68200D02*
X46850Y-67550D01*
X49100Y-68200D02*
X47500Y-68200D01*
X50200Y-69300D02*
X49100Y-68200D01*
X46850Y-66800D02*
X46850Y-69600D01*
X46850Y-65400D02*
X46850Y-66800D01*
G54D26*
X54200Y-61300D02*
X54700Y-61300D01*
X53100Y-62400D02*
X54200Y-61300D01*
X53100Y-68000D02*
X53100Y-62400D01*
G54D24*
X85050Y-82800D02*
X85800Y-82800D01*
X76700Y-71300D02*
X77600Y-71300D01*
X75800Y-72200D02*
X76700Y-71300D01*
X75800Y-75800D02*
X75800Y-72200D01*
X75200Y-76400D02*
X75800Y-75800D01*
X79950Y-78200D02*
X79950Y-78950D01*
X79950Y-78950D02*
X80800Y-79800D01*
G54D25*
X87600Y-61300D02*
X86600Y-61300D01*
X86650Y-56050D02*
X86800Y-56050D01*
X85300Y-57400D02*
X86650Y-56050D01*
X85300Y-60000D02*
X85300Y-57400D01*
X86600Y-61300D02*
X85300Y-60000D01*
G54D24*
X77600Y-71300D02*
X79450Y-71300D01*
X79450Y-71300D02*
X79950Y-71800D01*
X82400Y-76200D02*
X82400Y-79000D01*
X82400Y-79000D02*
X81600Y-79800D01*
X81600Y-79800D02*
X80800Y-79800D01*
G54D23*
X79750Y-66800D02*
X79750Y-69550D01*
X79950Y-69750D02*
X79950Y-71800D01*
X79750Y-69550D02*
X79950Y-69750D01*
G54D26*
X83600Y-69300D02*
X84700Y-69300D01*
X84700Y-69300D02*
X86000Y-68000D01*
G54D24*
X82400Y-70000D02*
X83100Y-69300D01*
X82400Y-76400D02*
X82400Y-76200D01*
X82400Y-76200D02*
X82400Y-70000D01*
X83100Y-69300D02*
X83600Y-69300D01*
X83600Y-69300D02*
X83100Y-69300D01*
X79750Y-67550D02*
X79750Y-66800D01*
X80400Y-68200D02*
X79750Y-67550D01*
X82000Y-68200D02*
X80400Y-68200D01*
X83100Y-69300D02*
X82000Y-68200D01*
X79750Y-66800D02*
X79750Y-69600D01*
X79750Y-65400D02*
X79750Y-66800D01*
G54D26*
X87100Y-61300D02*
X87600Y-61300D01*
X86000Y-62400D02*
X87100Y-61300D01*
X86000Y-68000D02*
X86000Y-62400D01*
G54D24*
X52150Y-52900D02*
X52900Y-52900D01*
X43800Y-41400D02*
X44700Y-41400D01*
X42900Y-42300D02*
X43800Y-41400D01*
X42900Y-45900D02*
X42900Y-42300D01*
X42300Y-46500D02*
X42900Y-45900D01*
X47050Y-48300D02*
X47050Y-49050D01*
X47050Y-49050D02*
X47900Y-49900D01*
G54D25*
X54700Y-31400D02*
X53700Y-31400D01*
X53750Y-26150D02*
X53900Y-26150D01*
X52400Y-27500D02*
X53750Y-26150D01*
X52400Y-30100D02*
X52400Y-27500D01*
X53700Y-31400D02*
X52400Y-30100D01*
G54D24*
X44700Y-41400D02*
X46550Y-41400D01*
X46550Y-41400D02*
X47050Y-41900D01*
X49500Y-46300D02*
X49500Y-49100D01*
X49500Y-49100D02*
X48700Y-49900D01*
X48700Y-49900D02*
X47900Y-49900D01*
G54D23*
X46850Y-36900D02*
X46850Y-39650D01*
X47050Y-39850D02*
X47050Y-41900D01*
X46850Y-39650D02*
X47050Y-39850D01*
G54D26*
X50700Y-39400D02*
X51800Y-39400D01*
X51800Y-39400D02*
X53100Y-38100D01*
G54D24*
X49500Y-40100D02*
X50200Y-39400D01*
X49500Y-46500D02*
X49500Y-46300D01*
X49500Y-46300D02*
X49500Y-40100D01*
X50200Y-39400D02*
X50700Y-39400D01*
X50700Y-39400D02*
X50200Y-39400D01*
X46850Y-37650D02*
X46850Y-36900D01*
X47500Y-38300D02*
X46850Y-37650D01*
X49100Y-38300D02*
X47500Y-38300D01*
X50200Y-39400D02*
X49100Y-38300D01*
X46850Y-36900D02*
X46850Y-39700D01*
X46850Y-35500D02*
X46850Y-36900D01*
G54D26*
X54200Y-31400D02*
X54700Y-31400D01*
X53100Y-32500D02*
X54200Y-31400D01*
X53100Y-38100D02*
X53100Y-32500D01*
G54D24*
X68650Y-82800D02*
X69400Y-82800D01*
X60300Y-71300D02*
X61200Y-71300D01*
X59400Y-72200D02*
X60300Y-71300D01*
X59400Y-75800D02*
X59400Y-72200D01*
X58800Y-76400D02*
X59400Y-75800D01*
X63550Y-78200D02*
X63550Y-78950D01*
X63550Y-78950D02*
X64400Y-79800D01*
G54D25*
X71200Y-61300D02*
X70200Y-61300D01*
X70250Y-56050D02*
X70400Y-56050D01*
X68900Y-57400D02*
X70250Y-56050D01*
X68900Y-60000D02*
X68900Y-57400D01*
X70200Y-61300D02*
X68900Y-60000D01*
G54D24*
X61200Y-71300D02*
X63050Y-71300D01*
X63050Y-71300D02*
X63550Y-71800D01*
X66000Y-76200D02*
X66000Y-79000D01*
X66000Y-79000D02*
X65200Y-79800D01*
X65200Y-79800D02*
X64400Y-79800D01*
G54D23*
X63350Y-66800D02*
X63350Y-69550D01*
X63550Y-69750D02*
X63550Y-71800D01*
X63350Y-69550D02*
X63550Y-69750D01*
G54D26*
X67200Y-69300D02*
X68300Y-69300D01*
X68300Y-69300D02*
X69600Y-68000D01*
G54D24*
X66000Y-70000D02*
X66700Y-69300D01*
X66000Y-76400D02*
X66000Y-76200D01*
X66000Y-76200D02*
X66000Y-70000D01*
X66700Y-69300D02*
X67200Y-69300D01*
X67200Y-69300D02*
X66700Y-69300D01*
X63350Y-67550D02*
X63350Y-66800D01*
X64000Y-68200D02*
X63350Y-67550D01*
X65600Y-68200D02*
X64000Y-68200D01*
X66700Y-69300D02*
X65600Y-68200D01*
X63350Y-66800D02*
X63350Y-69600D01*
X63350Y-65400D02*
X63350Y-66800D01*
G54D26*
X70700Y-61300D02*
X71200Y-61300D01*
X69600Y-62400D02*
X70700Y-61300D01*
X69600Y-68000D02*
X69600Y-62400D01*
G54D24*
X68650Y-52900D02*
X69400Y-52900D01*
X60300Y-41400D02*
X61200Y-41400D01*
X59400Y-42300D02*
X60300Y-41400D01*
X59400Y-45900D02*
X59400Y-42300D01*
X58800Y-46500D02*
X59400Y-45900D01*
X63550Y-48300D02*
X63550Y-49050D01*
X63550Y-49050D02*
X64400Y-49900D01*
G54D25*
X71200Y-31400D02*
X70200Y-31400D01*
X70250Y-26150D02*
X70400Y-26150D01*
X68900Y-27500D02*
X70250Y-26150D01*
X68900Y-30100D02*
X68900Y-27500D01*
X70200Y-31400D02*
X68900Y-30100D01*
G54D24*
X61200Y-41400D02*
X63050Y-41400D01*
X63050Y-41400D02*
X63550Y-41900D01*
X66000Y-46300D02*
X66000Y-49100D01*
X66000Y-49100D02*
X65200Y-49900D01*
X65200Y-49900D02*
X64400Y-49900D01*
G54D23*
X63350Y-36900D02*
X63350Y-39650D01*
X63550Y-39850D02*
X63550Y-41900D01*
X63350Y-39650D02*
X63550Y-39850D01*
G54D26*
X67200Y-39400D02*
X68300Y-39400D01*
X68300Y-39400D02*
X69600Y-38100D01*
G54D24*
X66000Y-40100D02*
X66700Y-39400D01*
X66000Y-46500D02*
X66000Y-46300D01*
X66000Y-46300D02*
X66000Y-40100D01*
X66700Y-39400D02*
X67200Y-39400D01*
X67200Y-39400D02*
X66700Y-39400D01*
X63350Y-37650D02*
X63350Y-36900D01*
X64000Y-38300D02*
X63350Y-37650D01*
X65600Y-38300D02*
X64000Y-38300D01*
X66700Y-39400D02*
X65600Y-38300D01*
X63350Y-36900D02*
X63350Y-39700D01*
X63350Y-35500D02*
X63350Y-36900D01*
G54D26*
X70700Y-31400D02*
X71200Y-31400D01*
X69600Y-32500D02*
X70700Y-31400D01*
X69600Y-38100D02*
X69600Y-32500D01*
G54D24*
X90400Y-47400D02*
X89900Y-47400D01*
X91700Y-48700D02*
X90400Y-47400D01*
X91700Y-50300D02*
X91700Y-48700D01*
X92700Y-51300D02*
X91700Y-50300D01*
X101100Y-51300D02*
X92700Y-51300D01*
X101500Y-50900D02*
X101100Y-51300D01*
X101500Y-46700D02*
X101500Y-50900D01*
X99900Y-46400D02*
X101200Y-46400D01*
X101200Y-46400D02*
X101500Y-46700D01*
X106800Y-47400D02*
X106300Y-47400D01*
X108100Y-48700D02*
X106800Y-47400D01*
X108100Y-50300D02*
X108100Y-48700D01*
X109100Y-51300D02*
X108100Y-50300D01*
X117500Y-51300D02*
X109100Y-51300D01*
X117900Y-50900D02*
X117500Y-51300D01*
X117900Y-46700D02*
X117900Y-50900D01*
X116300Y-46400D02*
X117600Y-46400D01*
X117600Y-46400D02*
X117900Y-46700D01*
X106800Y-77300D02*
X106300Y-77300D01*
X108100Y-78600D02*
X106800Y-77300D01*
X108100Y-80200D02*
X108100Y-78600D01*
X109100Y-81200D02*
X108100Y-80200D01*
X117500Y-81200D02*
X109100Y-81200D01*
X117900Y-80800D02*
X117500Y-81200D01*
X117900Y-76600D02*
X117900Y-80800D01*
X116300Y-76300D02*
X117600Y-76300D01*
X117600Y-76300D02*
X117900Y-76600D01*
X90400Y-77300D02*
X89900Y-77300D01*
X91700Y-78600D02*
X90400Y-77300D01*
X91700Y-80200D02*
X91700Y-78600D01*
X92700Y-81200D02*
X91700Y-80200D01*
X101100Y-81200D02*
X92700Y-81200D01*
X101500Y-80800D02*
X101100Y-81200D01*
X101500Y-76600D02*
X101500Y-80800D01*
X99900Y-76300D02*
X101200Y-76300D01*
X101200Y-76300D02*
X101500Y-76600D01*
X74100Y-47400D02*
X73600Y-47400D01*
X75400Y-48700D02*
X74100Y-47400D01*
X75400Y-50300D02*
X75400Y-48700D01*
X76400Y-51300D02*
X75400Y-50300D01*
X84800Y-51300D02*
X76400Y-51300D01*
X85200Y-50900D02*
X84800Y-51300D01*
X85200Y-46700D02*
X85200Y-50900D01*
X83600Y-46400D02*
X84900Y-46400D01*
X84900Y-46400D02*
X85200Y-46700D01*
X41200Y-77300D02*
X40700Y-77300D01*
X42500Y-78600D02*
X41200Y-77300D01*
X42500Y-80200D02*
X42500Y-78600D01*
X43500Y-81200D02*
X42500Y-80200D01*
X51900Y-81200D02*
X43500Y-81200D01*
X52300Y-80800D02*
X51900Y-81200D01*
X52300Y-76600D02*
X52300Y-80800D01*
X50700Y-76300D02*
X52000Y-76300D01*
X52000Y-76300D02*
X52300Y-76600D01*
X74100Y-77300D02*
X73600Y-77300D01*
X75400Y-78600D02*
X74100Y-77300D01*
X75400Y-80200D02*
X75400Y-78600D01*
X76400Y-81200D02*
X75400Y-80200D01*
X84800Y-81200D02*
X76400Y-81200D01*
X85200Y-80800D02*
X84800Y-81200D01*
X85200Y-76600D02*
X85200Y-80800D01*
X83600Y-76300D02*
X84900Y-76300D01*
X84900Y-76300D02*
X85200Y-76600D01*
X41200Y-47400D02*
X40700Y-47400D01*
X42500Y-48700D02*
X41200Y-47400D01*
X42500Y-50300D02*
X42500Y-48700D01*
X43500Y-51300D02*
X42500Y-50300D01*
X51900Y-51300D02*
X43500Y-51300D01*
X52300Y-50900D02*
X51900Y-51300D01*
X52300Y-46700D02*
X52300Y-50900D01*
X50700Y-46400D02*
X52000Y-46400D01*
X52000Y-46400D02*
X52300Y-46700D01*
X57700Y-77300D02*
X57200Y-77300D01*
X59000Y-78600D02*
X57700Y-77300D01*
X59000Y-80200D02*
X59000Y-78600D01*
X60000Y-81200D02*
X59000Y-80200D01*
X68400Y-81200D02*
X60000Y-81200D01*
X68800Y-80800D02*
X68400Y-81200D01*
X68800Y-76600D02*
X68800Y-80800D01*
X67200Y-76300D02*
X68500Y-76300D01*
X68500Y-76300D02*
X68800Y-76600D01*
X57700Y-47400D02*
X57200Y-47400D01*
X59000Y-48700D02*
X57700Y-47400D01*
X59000Y-50300D02*
X59000Y-48700D01*
X60000Y-51300D02*
X59000Y-50300D01*
X68400Y-51300D02*
X60000Y-51300D01*
X68800Y-50900D02*
X68400Y-51300D01*
X68800Y-46700D02*
X68800Y-50900D01*
X67200Y-46400D02*
X68500Y-46400D01*
X68500Y-46400D02*
X68800Y-46700D01*
G54D23*
X102550Y-29000D02*
X102550Y-28000D01*
X102550Y-28000D02*
X103100Y-27450D01*
X118950Y-29000D02*
X118950Y-28000D01*
X118950Y-28000D02*
X119500Y-27450D01*
X118950Y-58900D02*
X118950Y-57900D01*
X118950Y-57900D02*
X119500Y-57350D01*
X102550Y-58900D02*
X102550Y-57900D01*
X102550Y-57900D02*
X103100Y-57350D01*
X86250Y-29000D02*
X86250Y-28000D01*
X86250Y-28000D02*
X86800Y-27450D01*
X53350Y-58900D02*
X53350Y-57900D01*
X53350Y-57900D02*
X53900Y-57350D01*
X86250Y-58900D02*
X86250Y-57900D01*
X86250Y-57900D02*
X86800Y-57350D01*
X53350Y-29000D02*
X53350Y-28000D01*
X53350Y-28000D02*
X53900Y-27450D01*
X69850Y-58900D02*
X69850Y-57900D01*
X69850Y-57900D02*
X70400Y-57350D01*
X69850Y-29000D02*
X69850Y-28000D01*
X69850Y-28000D02*
X70400Y-27450D01*
G54D24*
X93150Y-52900D02*
X94500Y-52900D01*
X98900Y-52900D02*
X100050Y-52900D01*
X97550Y-52900D02*
X100050Y-52900D01*
X109550Y-52900D02*
X110900Y-52900D01*
X115300Y-52900D02*
X116450Y-52900D01*
X113950Y-52900D02*
X116450Y-52900D01*
X109550Y-82800D02*
X110900Y-82800D01*
X115300Y-82800D02*
X116450Y-82800D01*
X113950Y-82800D02*
X116450Y-82800D01*
X93150Y-82800D02*
X94500Y-82800D01*
X98900Y-82800D02*
X100050Y-82800D01*
X97550Y-82800D02*
X100050Y-82800D01*
X76850Y-52900D02*
X78200Y-52900D01*
X82600Y-52900D02*
X83750Y-52900D01*
X81250Y-52900D02*
X83750Y-52900D01*
X43950Y-82800D02*
X45300Y-82800D01*
X49700Y-82800D02*
X50850Y-82800D01*
X48350Y-82800D02*
X50850Y-82800D01*
X76850Y-82800D02*
X78200Y-82800D01*
X82600Y-82800D02*
X83750Y-82800D01*
X81250Y-82800D02*
X83750Y-82800D01*
X43950Y-52900D02*
X45300Y-52900D01*
X49700Y-52900D02*
X50850Y-52900D01*
X48350Y-52900D02*
X50850Y-52900D01*
X60450Y-82800D02*
X61800Y-82800D01*
X66200Y-82800D02*
X67350Y-82800D01*
X64850Y-82800D02*
X67350Y-82800D01*
X60450Y-52900D02*
X61800Y-52900D01*
X66200Y-52900D02*
X67350Y-52900D01*
X64850Y-52900D02*
X67350Y-52900D01*
G54D23*
X97550Y-48300D02*
X97550Y-46750D01*
X97550Y-46750D02*
X96900Y-46100D01*
X113950Y-48300D02*
X113950Y-46750D01*
X113950Y-46750D02*
X113300Y-46100D01*
X113950Y-78200D02*
X113950Y-76650D01*
X113950Y-76650D02*
X113300Y-76000D01*
X97550Y-78200D02*
X97550Y-76650D01*
X97550Y-76650D02*
X96900Y-76000D01*
X81250Y-48300D02*
X81250Y-46750D01*
X81250Y-46750D02*
X80600Y-46100D01*
X48350Y-78200D02*
X48350Y-76650D01*
X48350Y-76650D02*
X47700Y-76000D01*
X81250Y-78200D02*
X81250Y-76650D01*
X81250Y-76650D02*
X80600Y-76000D01*
X48350Y-48300D02*
X48350Y-46750D01*
X48350Y-46750D02*
X47700Y-46100D01*
X64850Y-78200D02*
X64850Y-76650D01*
X64850Y-76650D02*
X64200Y-76000D01*
X64850Y-48300D02*
X64850Y-46750D01*
X64850Y-46750D02*
X64200Y-46100D01*
X97550Y-41900D02*
X97550Y-43450D01*
X97550Y-43450D02*
X96900Y-44100D01*
X113950Y-41900D02*
X113950Y-43450D01*
X113950Y-43450D02*
X113300Y-44100D01*
X113950Y-71800D02*
X113950Y-73350D01*
X113950Y-73350D02*
X113300Y-74000D01*
X97550Y-71800D02*
X97550Y-73350D01*
X97550Y-73350D02*
X96900Y-74000D01*
X81250Y-41900D02*
X81250Y-43450D01*
X81250Y-43450D02*
X80600Y-44100D01*
X48350Y-71800D02*
X48350Y-73350D01*
X48350Y-73350D02*
X47700Y-74000D01*
X81250Y-71800D02*
X81250Y-73350D01*
X81250Y-73350D02*
X80600Y-74000D01*
X48350Y-41900D02*
X48350Y-43450D01*
X48350Y-43450D02*
X47700Y-44100D01*
X64850Y-71800D02*
X64850Y-73350D01*
X64850Y-73350D02*
X64200Y-74000D01*
X64850Y-41900D02*
X64850Y-43450D01*
X64850Y-43450D02*
X64200Y-44100D01*
G54D24*
X99900Y-47400D02*
X100400Y-47400D01*
X100400Y-47400D02*
X100900Y-47900D01*
X90400Y-46400D02*
X89900Y-46400D01*
X92500Y-48500D02*
X90400Y-46400D01*
X92500Y-50100D02*
X92500Y-48500D01*
X93100Y-50700D02*
X92500Y-50100D01*
X100100Y-50700D02*
X93100Y-50700D01*
X100900Y-49900D02*
X100100Y-50700D01*
X100900Y-47900D02*
X100900Y-49900D01*
X116300Y-47400D02*
X116800Y-47400D01*
X116800Y-47400D02*
X117300Y-47900D01*
X106800Y-46400D02*
X106300Y-46400D01*
X108900Y-48500D02*
X106800Y-46400D01*
X108900Y-50100D02*
X108900Y-48500D01*
X109500Y-50700D02*
X108900Y-50100D01*
X116500Y-50700D02*
X109500Y-50700D01*
X117300Y-49900D02*
X116500Y-50700D01*
X117300Y-47900D02*
X117300Y-49900D01*
X116300Y-77300D02*
X116800Y-77300D01*
X116800Y-77300D02*
X117300Y-77800D01*
X106800Y-76300D02*
X106300Y-76300D01*
X108900Y-78400D02*
X106800Y-76300D01*
X108900Y-80000D02*
X108900Y-78400D01*
X109500Y-80600D02*
X108900Y-80000D01*
X116500Y-80600D02*
X109500Y-80600D01*
X117300Y-79800D02*
X116500Y-80600D01*
X117300Y-77800D02*
X117300Y-79800D01*
X99900Y-77300D02*
X100400Y-77300D01*
X100400Y-77300D02*
X100900Y-77800D01*
X90400Y-76300D02*
X89900Y-76300D01*
X92500Y-78400D02*
X90400Y-76300D01*
X92500Y-80000D02*
X92500Y-78400D01*
X93100Y-80600D02*
X92500Y-80000D01*
X100100Y-80600D02*
X93100Y-80600D01*
X100900Y-79800D02*
X100100Y-80600D01*
X100900Y-77800D02*
X100900Y-79800D01*
X83600Y-47400D02*
X84100Y-47400D01*
X84100Y-47400D02*
X84600Y-47900D01*
X74100Y-46400D02*
X73600Y-46400D01*
X76200Y-48500D02*
X74100Y-46400D01*
X76200Y-50100D02*
X76200Y-48500D01*
X76800Y-50700D02*
X76200Y-50100D01*
X83800Y-50700D02*
X76800Y-50700D01*
X84600Y-49900D02*
X83800Y-50700D01*
X84600Y-47900D02*
X84600Y-49900D01*
X50700Y-77300D02*
X51200Y-77300D01*
X51200Y-77300D02*
X51700Y-77800D01*
X41200Y-76300D02*
X40700Y-76300D01*
X43300Y-78400D02*
X41200Y-76300D01*
X43300Y-80000D02*
X43300Y-78400D01*
X43900Y-80600D02*
X43300Y-80000D01*
X50900Y-80600D02*
X43900Y-80600D01*
X51700Y-79800D02*
X50900Y-80600D01*
X51700Y-77800D02*
X51700Y-79800D01*
X83600Y-77300D02*
X84100Y-77300D01*
X84100Y-77300D02*
X84600Y-77800D01*
X74100Y-76300D02*
X73600Y-76300D01*
X76200Y-78400D02*
X74100Y-76300D01*
X76200Y-80000D02*
X76200Y-78400D01*
X76800Y-80600D02*
X76200Y-80000D01*
X83800Y-80600D02*
X76800Y-80600D01*
X84600Y-79800D02*
X83800Y-80600D01*
X84600Y-77800D02*
X84600Y-79800D01*
X50700Y-47400D02*
X51200Y-47400D01*
X51200Y-47400D02*
X51700Y-47900D01*
X41200Y-46400D02*
X40700Y-46400D01*
X43300Y-48500D02*
X41200Y-46400D01*
X43300Y-50100D02*
X43300Y-48500D01*
X43900Y-50700D02*
X43300Y-50100D01*
X50900Y-50700D02*
X43900Y-50700D01*
X51700Y-49900D02*
X50900Y-50700D01*
X51700Y-47900D02*
X51700Y-49900D01*
X67200Y-77300D02*
X67700Y-77300D01*
X67700Y-77300D02*
X68200Y-77800D01*
X57700Y-76300D02*
X57200Y-76300D01*
X59800Y-78400D02*
X57700Y-76300D01*
X59800Y-80000D02*
X59800Y-78400D01*
X60400Y-80600D02*
X59800Y-80000D01*
X67400Y-80600D02*
X60400Y-80600D01*
X68200Y-79800D02*
X67400Y-80600D01*
X68200Y-77800D02*
X68200Y-79800D01*
X67200Y-47400D02*
X67700Y-47400D01*
X67700Y-47400D02*
X68200Y-47900D01*
X57700Y-46400D02*
X57200Y-46400D01*
X59800Y-48500D02*
X57700Y-46400D01*
X59800Y-50100D02*
X59800Y-48500D01*
X60400Y-50700D02*
X59800Y-50100D01*
X67400Y-50700D02*
X60400Y-50700D01*
X68200Y-49900D02*
X67400Y-50700D01*
X68200Y-47900D02*
X68200Y-49900D01*
M02*
