G04 (created by PCBNEW (2013-07-07 BZR 4022)-stable) date 3/28/2015 9:54:39 PM*
%MOIN*%
G04 Gerber Fmt 3.4, Leading zero omitted, Abs format*
%FSLAX34Y34*%
G01*
G70*
G90*
G04 APERTURE LIST*
%ADD10C,0.00590551*%
%ADD11C,0.00393701*%
%ADD12C,0.0590551*%
%ADD13R,0.06X0.08*%
%ADD14R,0.062X0.09*%
%ADD15O,0.062X0.09*%
%ADD16R,0.09X0.062*%
%ADD17O,0.09X0.062*%
%ADD18C,0.055*%
%ADD19C,0.056*%
%ADD20R,0.08X0.06*%
G04 APERTURE END LIST*
G54D10*
G54D11*
X88900Y-24900D02*
X88900Y-27400D01*
X88900Y-24900D02*
X91400Y-24900D01*
X88900Y-54400D02*
X88900Y-51900D01*
X88900Y-54400D02*
X91400Y-54400D01*
X104900Y-54400D02*
X102400Y-54400D01*
X104900Y-54400D02*
X104900Y-51900D01*
X104900Y-24900D02*
X104900Y-27400D01*
X104900Y-24900D02*
X102400Y-24900D01*
X105300Y-24900D02*
X105300Y-27400D01*
X105300Y-24900D02*
X107800Y-24900D01*
X105300Y-54400D02*
X105300Y-51900D01*
X105300Y-54400D02*
X107800Y-54400D01*
X121300Y-54400D02*
X118800Y-54400D01*
X121300Y-54400D02*
X121300Y-51900D01*
X121300Y-24900D02*
X121300Y-27400D01*
X121300Y-24900D02*
X118800Y-24900D01*
X105300Y-54800D02*
X105300Y-57300D01*
X105300Y-54800D02*
X107800Y-54800D01*
X105300Y-84300D02*
X105300Y-81800D01*
X105300Y-84300D02*
X107800Y-84300D01*
X121300Y-84300D02*
X118800Y-84300D01*
X121300Y-84300D02*
X121300Y-81800D01*
X121300Y-54800D02*
X121300Y-57300D01*
X121300Y-54800D02*
X118800Y-54800D01*
X88900Y-54800D02*
X88900Y-57300D01*
X88900Y-54800D02*
X91400Y-54800D01*
X88900Y-84300D02*
X88900Y-81800D01*
X88900Y-84300D02*
X91400Y-84300D01*
X104900Y-84300D02*
X102400Y-84300D01*
X104900Y-84300D02*
X104900Y-81800D01*
X104900Y-54800D02*
X104900Y-57300D01*
X104900Y-54800D02*
X102400Y-54800D01*
X72600Y-24900D02*
X72600Y-27400D01*
X72600Y-24900D02*
X75100Y-24900D01*
X72600Y-54400D02*
X72600Y-51900D01*
X72600Y-54400D02*
X75100Y-54400D01*
X88600Y-54400D02*
X86100Y-54400D01*
X88600Y-54400D02*
X88600Y-51900D01*
X88600Y-24900D02*
X88600Y-27400D01*
X88600Y-24900D02*
X86100Y-24900D01*
X39700Y-54800D02*
X39700Y-57300D01*
X39700Y-54800D02*
X42200Y-54800D01*
X39700Y-84300D02*
X39700Y-81800D01*
X39700Y-84300D02*
X42200Y-84300D01*
X55700Y-84300D02*
X53200Y-84300D01*
X55700Y-84300D02*
X55700Y-81800D01*
X55700Y-54800D02*
X55700Y-57300D01*
X55700Y-54800D02*
X53200Y-54800D01*
X72600Y-54800D02*
X72600Y-57300D01*
X72600Y-54800D02*
X75100Y-54800D01*
X72600Y-84300D02*
X72600Y-81800D01*
X72600Y-84300D02*
X75100Y-84300D01*
X88600Y-84300D02*
X86100Y-84300D01*
X88600Y-84300D02*
X88600Y-81800D01*
X88600Y-54800D02*
X88600Y-57300D01*
X88600Y-54800D02*
X86100Y-54800D01*
X39700Y-24900D02*
X39700Y-27400D01*
X39700Y-24900D02*
X42200Y-24900D01*
X39700Y-54400D02*
X39700Y-51900D01*
X39700Y-54400D02*
X42200Y-54400D01*
X55700Y-54400D02*
X53200Y-54400D01*
X55700Y-54400D02*
X55700Y-51900D01*
X55700Y-24900D02*
X55700Y-27400D01*
X55700Y-24900D02*
X53200Y-24900D01*
X56200Y-54800D02*
X56200Y-57300D01*
X56200Y-54800D02*
X58700Y-54800D01*
X56200Y-84300D02*
X56200Y-81800D01*
X56200Y-84300D02*
X58700Y-84300D01*
X72200Y-84300D02*
X69700Y-84300D01*
X72200Y-84300D02*
X72200Y-81800D01*
X72200Y-54800D02*
X72200Y-57300D01*
X72200Y-54800D02*
X69700Y-54800D01*
X56200Y-24900D02*
X56200Y-27400D01*
X56200Y-24900D02*
X58700Y-24900D01*
X56200Y-54400D02*
X56200Y-51900D01*
X56200Y-54400D02*
X58700Y-54400D01*
X72200Y-54400D02*
X69700Y-54400D01*
X72200Y-54400D02*
X72200Y-51900D01*
X72200Y-24900D02*
X72200Y-27400D01*
X72200Y-24900D02*
X69700Y-24900D01*
G54D12*
X92496Y-28800D03*
X92500Y-25804D03*
G54D13*
X96050Y-33100D03*
X97350Y-33100D03*
X96250Y-41900D03*
X97550Y-41900D03*
X96250Y-48300D03*
X97550Y-48300D03*
X96050Y-36900D03*
X97350Y-36900D03*
X96050Y-35500D03*
X97350Y-35500D03*
G54D14*
X95500Y-26400D03*
G54D15*
X96500Y-26400D03*
X97500Y-26400D03*
X98500Y-26400D03*
X99500Y-26400D03*
X100500Y-26400D03*
G54D16*
X89900Y-39400D03*
G54D17*
X89900Y-38400D03*
X89900Y-37400D03*
X89900Y-36400D03*
X89900Y-35400D03*
X89900Y-34400D03*
X89900Y-33400D03*
X89900Y-32400D03*
X89900Y-31400D03*
X89900Y-30400D03*
G54D16*
X89900Y-49400D03*
G54D17*
X89900Y-48400D03*
X89900Y-47400D03*
X89900Y-46400D03*
X89900Y-45400D03*
X89900Y-44400D03*
X89900Y-43400D03*
X89900Y-42400D03*
X89900Y-41400D03*
X89900Y-40400D03*
G54D16*
X103900Y-40400D03*
G54D17*
X103900Y-41400D03*
X103900Y-42400D03*
X103900Y-43400D03*
X103900Y-44400D03*
X103900Y-45400D03*
X103900Y-46400D03*
X103900Y-47400D03*
X103900Y-48400D03*
X103900Y-49400D03*
G54D16*
X103900Y-30400D03*
G54D17*
X103900Y-31400D03*
X103900Y-32400D03*
G54D18*
X103900Y-33400D03*
G54D17*
X103900Y-34400D03*
X103900Y-35400D03*
X103900Y-36400D03*
X103900Y-37400D03*
X103900Y-38400D03*
X103900Y-39400D03*
G54D19*
X96900Y-46100D03*
X96900Y-44100D03*
G54D16*
X93900Y-30400D03*
G54D17*
X93900Y-31400D03*
X93900Y-32400D03*
X93900Y-33400D03*
X93900Y-34400D03*
X93900Y-35400D03*
X93900Y-36400D03*
X93900Y-37400D03*
X93900Y-38400D03*
X93900Y-39400D03*
X93900Y-40400D03*
X93900Y-41400D03*
X93900Y-42400D03*
X93900Y-43400D03*
X93900Y-44400D03*
X93900Y-45400D03*
X93900Y-46400D03*
X93900Y-47400D03*
X93900Y-48400D03*
X93900Y-49400D03*
X99900Y-49400D03*
X99900Y-48400D03*
X99900Y-47400D03*
X99900Y-46400D03*
X99900Y-45400D03*
X99900Y-44400D03*
X99900Y-43400D03*
X99900Y-42400D03*
X99900Y-41400D03*
X99900Y-40400D03*
X99900Y-39400D03*
X99900Y-38400D03*
X99900Y-37400D03*
X99900Y-36400D03*
X99900Y-35400D03*
X99900Y-34400D03*
X99900Y-33400D03*
X99900Y-32400D03*
X99900Y-31400D03*
X99900Y-30400D03*
G54D13*
X103850Y-29000D03*
X102550Y-29000D03*
G54D20*
X103100Y-27450D03*
X103100Y-26150D03*
G54D13*
X96250Y-52900D03*
X97550Y-52900D03*
X91850Y-52900D03*
X93150Y-52900D03*
X100050Y-52900D03*
X101350Y-52900D03*
G54D12*
X108896Y-28800D03*
X108900Y-25804D03*
G54D13*
X112450Y-33100D03*
X113750Y-33100D03*
X112650Y-41900D03*
X113950Y-41900D03*
X112650Y-48300D03*
X113950Y-48300D03*
X112450Y-36900D03*
X113750Y-36900D03*
X112450Y-35500D03*
X113750Y-35500D03*
G54D14*
X111900Y-26400D03*
G54D15*
X112900Y-26400D03*
X113900Y-26400D03*
X114900Y-26400D03*
X115900Y-26400D03*
X116900Y-26400D03*
G54D16*
X106300Y-39400D03*
G54D17*
X106300Y-38400D03*
X106300Y-37400D03*
X106300Y-36400D03*
X106300Y-35400D03*
X106300Y-34400D03*
X106300Y-33400D03*
X106300Y-32400D03*
X106300Y-31400D03*
X106300Y-30400D03*
G54D16*
X106300Y-49400D03*
G54D17*
X106300Y-48400D03*
X106300Y-47400D03*
X106300Y-46400D03*
X106300Y-45400D03*
X106300Y-44400D03*
X106300Y-43400D03*
X106300Y-42400D03*
X106300Y-41400D03*
X106300Y-40400D03*
G54D16*
X120300Y-40400D03*
G54D17*
X120300Y-41400D03*
X120300Y-42400D03*
X120300Y-43400D03*
X120300Y-44400D03*
X120300Y-45400D03*
X120300Y-46400D03*
X120300Y-47400D03*
X120300Y-48400D03*
X120300Y-49400D03*
G54D16*
X120300Y-30400D03*
G54D17*
X120300Y-31400D03*
X120300Y-32400D03*
G54D18*
X120300Y-33400D03*
G54D17*
X120300Y-34400D03*
X120300Y-35400D03*
X120300Y-36400D03*
X120300Y-37400D03*
X120300Y-38400D03*
X120300Y-39400D03*
G54D19*
X113300Y-46100D03*
X113300Y-44100D03*
G54D16*
X110300Y-30400D03*
G54D17*
X110300Y-31400D03*
X110300Y-32400D03*
X110300Y-33400D03*
X110300Y-34400D03*
X110300Y-35400D03*
X110300Y-36400D03*
X110300Y-37400D03*
X110300Y-38400D03*
X110300Y-39400D03*
X110300Y-40400D03*
X110300Y-41400D03*
X110300Y-42400D03*
X110300Y-43400D03*
X110300Y-44400D03*
X110300Y-45400D03*
X110300Y-46400D03*
X110300Y-47400D03*
X110300Y-48400D03*
X110300Y-49400D03*
X116300Y-49400D03*
X116300Y-48400D03*
X116300Y-47400D03*
X116300Y-46400D03*
X116300Y-45400D03*
X116300Y-44400D03*
X116300Y-43400D03*
X116300Y-42400D03*
X116300Y-41400D03*
X116300Y-40400D03*
X116300Y-39400D03*
X116300Y-38400D03*
X116300Y-37400D03*
X116300Y-36400D03*
X116300Y-35400D03*
X116300Y-34400D03*
X116300Y-33400D03*
X116300Y-32400D03*
X116300Y-31400D03*
X116300Y-30400D03*
G54D13*
X120250Y-29000D03*
X118950Y-29000D03*
G54D20*
X119500Y-27450D03*
X119500Y-26150D03*
G54D13*
X112650Y-52900D03*
X113950Y-52900D03*
X108250Y-52900D03*
X109550Y-52900D03*
X116450Y-52900D03*
X117750Y-52900D03*
G54D12*
X108896Y-58700D03*
X108900Y-55704D03*
G54D13*
X112450Y-63000D03*
X113750Y-63000D03*
X112650Y-71800D03*
X113950Y-71800D03*
X112650Y-78200D03*
X113950Y-78200D03*
X112450Y-66800D03*
X113750Y-66800D03*
X112450Y-65400D03*
X113750Y-65400D03*
G54D14*
X111900Y-56300D03*
G54D15*
X112900Y-56300D03*
X113900Y-56300D03*
X114900Y-56300D03*
X115900Y-56300D03*
X116900Y-56300D03*
G54D16*
X106300Y-69300D03*
G54D17*
X106300Y-68300D03*
X106300Y-67300D03*
X106300Y-66300D03*
X106300Y-65300D03*
X106300Y-64300D03*
X106300Y-63300D03*
X106300Y-62300D03*
X106300Y-61300D03*
X106300Y-60300D03*
G54D16*
X106300Y-79300D03*
G54D17*
X106300Y-78300D03*
X106300Y-77300D03*
X106300Y-76300D03*
X106300Y-75300D03*
X106300Y-74300D03*
X106300Y-73300D03*
X106300Y-72300D03*
X106300Y-71300D03*
X106300Y-70300D03*
G54D16*
X120300Y-70300D03*
G54D17*
X120300Y-71300D03*
X120300Y-72300D03*
X120300Y-73300D03*
X120300Y-74300D03*
X120300Y-75300D03*
X120300Y-76300D03*
X120300Y-77300D03*
X120300Y-78300D03*
X120300Y-79300D03*
G54D16*
X120300Y-60300D03*
G54D17*
X120300Y-61300D03*
X120300Y-62300D03*
G54D18*
X120300Y-63300D03*
G54D17*
X120300Y-64300D03*
X120300Y-65300D03*
X120300Y-66300D03*
X120300Y-67300D03*
X120300Y-68300D03*
X120300Y-69300D03*
G54D19*
X113300Y-76000D03*
X113300Y-74000D03*
G54D16*
X110300Y-60300D03*
G54D17*
X110300Y-61300D03*
X110300Y-62300D03*
X110300Y-63300D03*
X110300Y-64300D03*
X110300Y-65300D03*
X110300Y-66300D03*
X110300Y-67300D03*
X110300Y-68300D03*
X110300Y-69300D03*
X110300Y-70300D03*
X110300Y-71300D03*
X110300Y-72300D03*
X110300Y-73300D03*
X110300Y-74300D03*
X110300Y-75300D03*
X110300Y-76300D03*
X110300Y-77300D03*
X110300Y-78300D03*
X110300Y-79300D03*
X116300Y-79300D03*
X116300Y-78300D03*
X116300Y-77300D03*
X116300Y-76300D03*
X116300Y-75300D03*
X116300Y-74300D03*
X116300Y-73300D03*
X116300Y-72300D03*
X116300Y-71300D03*
X116300Y-70300D03*
X116300Y-69300D03*
X116300Y-68300D03*
X116300Y-67300D03*
X116300Y-66300D03*
X116300Y-65300D03*
X116300Y-64300D03*
X116300Y-63300D03*
X116300Y-62300D03*
X116300Y-61300D03*
X116300Y-60300D03*
G54D13*
X120250Y-58900D03*
X118950Y-58900D03*
G54D20*
X119500Y-57350D03*
X119500Y-56050D03*
G54D13*
X112650Y-82800D03*
X113950Y-82800D03*
X108250Y-82800D03*
X109550Y-82800D03*
X116450Y-82800D03*
X117750Y-82800D03*
G54D12*
X92496Y-58700D03*
X92500Y-55704D03*
G54D13*
X96050Y-63000D03*
X97350Y-63000D03*
X96250Y-71800D03*
X97550Y-71800D03*
X96250Y-78200D03*
X97550Y-78200D03*
X96050Y-66800D03*
X97350Y-66800D03*
X96050Y-65400D03*
X97350Y-65400D03*
G54D14*
X95500Y-56300D03*
G54D15*
X96500Y-56300D03*
X97500Y-56300D03*
X98500Y-56300D03*
X99500Y-56300D03*
X100500Y-56300D03*
G54D16*
X89900Y-69300D03*
G54D17*
X89900Y-68300D03*
X89900Y-67300D03*
X89900Y-66300D03*
X89900Y-65300D03*
X89900Y-64300D03*
X89900Y-63300D03*
X89900Y-62300D03*
X89900Y-61300D03*
X89900Y-60300D03*
G54D16*
X89900Y-79300D03*
G54D17*
X89900Y-78300D03*
X89900Y-77300D03*
X89900Y-76300D03*
X89900Y-75300D03*
X89900Y-74300D03*
X89900Y-73300D03*
X89900Y-72300D03*
X89900Y-71300D03*
X89900Y-70300D03*
G54D16*
X103900Y-70300D03*
G54D17*
X103900Y-71300D03*
X103900Y-72300D03*
X103900Y-73300D03*
X103900Y-74300D03*
X103900Y-75300D03*
X103900Y-76300D03*
X103900Y-77300D03*
X103900Y-78300D03*
X103900Y-79300D03*
G54D16*
X103900Y-60300D03*
G54D17*
X103900Y-61300D03*
X103900Y-62300D03*
G54D18*
X103900Y-63300D03*
G54D17*
X103900Y-64300D03*
X103900Y-65300D03*
X103900Y-66300D03*
X103900Y-67300D03*
X103900Y-68300D03*
X103900Y-69300D03*
G54D19*
X96900Y-76000D03*
X96900Y-74000D03*
G54D16*
X93900Y-60300D03*
G54D17*
X93900Y-61300D03*
X93900Y-62300D03*
X93900Y-63300D03*
X93900Y-64300D03*
X93900Y-65300D03*
X93900Y-66300D03*
X93900Y-67300D03*
X93900Y-68300D03*
X93900Y-69300D03*
X93900Y-70300D03*
X93900Y-71300D03*
X93900Y-72300D03*
X93900Y-73300D03*
X93900Y-74300D03*
X93900Y-75300D03*
X93900Y-76300D03*
X93900Y-77300D03*
X93900Y-78300D03*
X93900Y-79300D03*
X99900Y-79300D03*
X99900Y-78300D03*
X99900Y-77300D03*
X99900Y-76300D03*
X99900Y-75300D03*
X99900Y-74300D03*
X99900Y-73300D03*
X99900Y-72300D03*
X99900Y-71300D03*
X99900Y-70300D03*
X99900Y-69300D03*
X99900Y-68300D03*
X99900Y-67300D03*
X99900Y-66300D03*
X99900Y-65300D03*
X99900Y-64300D03*
X99900Y-63300D03*
X99900Y-62300D03*
X99900Y-61300D03*
X99900Y-60300D03*
G54D13*
X103850Y-58900D03*
X102550Y-58900D03*
G54D20*
X103100Y-57350D03*
X103100Y-56050D03*
G54D13*
X96250Y-82800D03*
X97550Y-82800D03*
X91850Y-82800D03*
X93150Y-82800D03*
X100050Y-82800D03*
X101350Y-82800D03*
G54D12*
X76196Y-28800D03*
X76200Y-25804D03*
G54D13*
X79750Y-33100D03*
X81050Y-33100D03*
X79950Y-41900D03*
X81250Y-41900D03*
X79950Y-48300D03*
X81250Y-48300D03*
X79750Y-36900D03*
X81050Y-36900D03*
X79750Y-35500D03*
X81050Y-35500D03*
G54D14*
X79200Y-26400D03*
G54D15*
X80200Y-26400D03*
X81200Y-26400D03*
X82200Y-26400D03*
X83200Y-26400D03*
X84200Y-26400D03*
G54D16*
X73600Y-39400D03*
G54D17*
X73600Y-38400D03*
X73600Y-37400D03*
X73600Y-36400D03*
X73600Y-35400D03*
X73600Y-34400D03*
X73600Y-33400D03*
X73600Y-32400D03*
X73600Y-31400D03*
X73600Y-30400D03*
G54D16*
X73600Y-49400D03*
G54D17*
X73600Y-48400D03*
X73600Y-47400D03*
X73600Y-46400D03*
X73600Y-45400D03*
X73600Y-44400D03*
X73600Y-43400D03*
X73600Y-42400D03*
X73600Y-41400D03*
X73600Y-40400D03*
G54D16*
X87600Y-40400D03*
G54D17*
X87600Y-41400D03*
X87600Y-42400D03*
X87600Y-43400D03*
X87600Y-44400D03*
X87600Y-45400D03*
X87600Y-46400D03*
X87600Y-47400D03*
X87600Y-48400D03*
X87600Y-49400D03*
G54D16*
X87600Y-30400D03*
G54D17*
X87600Y-31400D03*
X87600Y-32400D03*
G54D18*
X87600Y-33400D03*
G54D17*
X87600Y-34400D03*
X87600Y-35400D03*
X87600Y-36400D03*
X87600Y-37400D03*
X87600Y-38400D03*
X87600Y-39400D03*
G54D19*
X80600Y-46100D03*
X80600Y-44100D03*
G54D16*
X77600Y-30400D03*
G54D17*
X77600Y-31400D03*
X77600Y-32400D03*
X77600Y-33400D03*
X77600Y-34400D03*
X77600Y-35400D03*
X77600Y-36400D03*
X77600Y-37400D03*
X77600Y-38400D03*
X77600Y-39400D03*
X77600Y-40400D03*
X77600Y-41400D03*
X77600Y-42400D03*
X77600Y-43400D03*
X77600Y-44400D03*
X77600Y-45400D03*
X77600Y-46400D03*
X77600Y-47400D03*
X77600Y-48400D03*
X77600Y-49400D03*
X83600Y-49400D03*
X83600Y-48400D03*
X83600Y-47400D03*
X83600Y-46400D03*
X83600Y-45400D03*
X83600Y-44400D03*
X83600Y-43400D03*
X83600Y-42400D03*
X83600Y-41400D03*
X83600Y-40400D03*
X83600Y-39400D03*
X83600Y-38400D03*
X83600Y-37400D03*
X83600Y-36400D03*
X83600Y-35400D03*
X83600Y-34400D03*
X83600Y-33400D03*
X83600Y-32400D03*
X83600Y-31400D03*
X83600Y-30400D03*
G54D13*
X87550Y-29000D03*
X86250Y-29000D03*
G54D20*
X86800Y-27450D03*
X86800Y-26150D03*
G54D13*
X79950Y-52900D03*
X81250Y-52900D03*
X75550Y-52900D03*
X76850Y-52900D03*
X83750Y-52900D03*
X85050Y-52900D03*
G54D12*
X43296Y-58700D03*
X43300Y-55704D03*
G54D13*
X46850Y-63000D03*
X48150Y-63000D03*
X47050Y-71800D03*
X48350Y-71800D03*
X47050Y-78200D03*
X48350Y-78200D03*
X46850Y-66800D03*
X48150Y-66800D03*
X46850Y-65400D03*
X48150Y-65400D03*
G54D14*
X46300Y-56300D03*
G54D15*
X47300Y-56300D03*
X48300Y-56300D03*
X49300Y-56300D03*
X50300Y-56300D03*
X51300Y-56300D03*
G54D16*
X40700Y-69300D03*
G54D17*
X40700Y-68300D03*
X40700Y-67300D03*
X40700Y-66300D03*
X40700Y-65300D03*
X40700Y-64300D03*
X40700Y-63300D03*
X40700Y-62300D03*
X40700Y-61300D03*
X40700Y-60300D03*
G54D16*
X40700Y-79300D03*
G54D17*
X40700Y-78300D03*
X40700Y-77300D03*
X40700Y-76300D03*
X40700Y-75300D03*
X40700Y-74300D03*
X40700Y-73300D03*
X40700Y-72300D03*
X40700Y-71300D03*
X40700Y-70300D03*
G54D16*
X54700Y-70300D03*
G54D17*
X54700Y-71300D03*
X54700Y-72300D03*
X54700Y-73300D03*
X54700Y-74300D03*
X54700Y-75300D03*
X54700Y-76300D03*
X54700Y-77300D03*
X54700Y-78300D03*
X54700Y-79300D03*
G54D16*
X54700Y-60300D03*
G54D17*
X54700Y-61300D03*
X54700Y-62300D03*
G54D18*
X54700Y-63300D03*
G54D17*
X54700Y-64300D03*
X54700Y-65300D03*
X54700Y-66300D03*
X54700Y-67300D03*
X54700Y-68300D03*
X54700Y-69300D03*
G54D19*
X47700Y-76000D03*
X47700Y-74000D03*
G54D16*
X44700Y-60300D03*
G54D17*
X44700Y-61300D03*
X44700Y-62300D03*
X44700Y-63300D03*
X44700Y-64300D03*
X44700Y-65300D03*
X44700Y-66300D03*
X44700Y-67300D03*
X44700Y-68300D03*
X44700Y-69300D03*
X44700Y-70300D03*
X44700Y-71300D03*
X44700Y-72300D03*
X44700Y-73300D03*
X44700Y-74300D03*
X44700Y-75300D03*
X44700Y-76300D03*
X44700Y-77300D03*
X44700Y-78300D03*
X44700Y-79300D03*
X50700Y-79300D03*
X50700Y-78300D03*
X50700Y-77300D03*
X50700Y-76300D03*
X50700Y-75300D03*
X50700Y-74300D03*
X50700Y-73300D03*
X50700Y-72300D03*
X50700Y-71300D03*
X50700Y-70300D03*
X50700Y-69300D03*
X50700Y-68300D03*
X50700Y-67300D03*
X50700Y-66300D03*
X50700Y-65300D03*
X50700Y-64300D03*
X50700Y-63300D03*
X50700Y-62300D03*
X50700Y-61300D03*
X50700Y-60300D03*
G54D13*
X54650Y-58900D03*
X53350Y-58900D03*
G54D20*
X53900Y-57350D03*
X53900Y-56050D03*
G54D13*
X47050Y-82800D03*
X48350Y-82800D03*
X42650Y-82800D03*
X43950Y-82800D03*
X50850Y-82800D03*
X52150Y-82800D03*
G54D12*
X76196Y-58700D03*
X76200Y-55704D03*
G54D13*
X79750Y-63000D03*
X81050Y-63000D03*
X79950Y-71800D03*
X81250Y-71800D03*
X79950Y-78200D03*
X81250Y-78200D03*
X79750Y-66800D03*
X81050Y-66800D03*
X79750Y-65400D03*
X81050Y-65400D03*
G54D14*
X79200Y-56300D03*
G54D15*
X80200Y-56300D03*
X81200Y-56300D03*
X82200Y-56300D03*
X83200Y-56300D03*
X84200Y-56300D03*
G54D16*
X73600Y-69300D03*
G54D17*
X73600Y-68300D03*
X73600Y-67300D03*
X73600Y-66300D03*
X73600Y-65300D03*
X73600Y-64300D03*
X73600Y-63300D03*
X73600Y-62300D03*
X73600Y-61300D03*
X73600Y-60300D03*
G54D16*
X73600Y-79300D03*
G54D17*
X73600Y-78300D03*
X73600Y-77300D03*
X73600Y-76300D03*
X73600Y-75300D03*
X73600Y-74300D03*
X73600Y-73300D03*
X73600Y-72300D03*
X73600Y-71300D03*
X73600Y-70300D03*
G54D16*
X87600Y-70300D03*
G54D17*
X87600Y-71300D03*
X87600Y-72300D03*
X87600Y-73300D03*
X87600Y-74300D03*
X87600Y-75300D03*
X87600Y-76300D03*
X87600Y-77300D03*
X87600Y-78300D03*
X87600Y-79300D03*
G54D16*
X87600Y-60300D03*
G54D17*
X87600Y-61300D03*
X87600Y-62300D03*
G54D18*
X87600Y-63300D03*
G54D17*
X87600Y-64300D03*
X87600Y-65300D03*
X87600Y-66300D03*
X87600Y-67300D03*
X87600Y-68300D03*
X87600Y-69300D03*
G54D19*
X80600Y-76000D03*
X80600Y-74000D03*
G54D16*
X77600Y-60300D03*
G54D17*
X77600Y-61300D03*
X77600Y-62300D03*
X77600Y-63300D03*
X77600Y-64300D03*
X77600Y-65300D03*
X77600Y-66300D03*
X77600Y-67300D03*
X77600Y-68300D03*
X77600Y-69300D03*
X77600Y-70300D03*
X77600Y-71300D03*
X77600Y-72300D03*
X77600Y-73300D03*
X77600Y-74300D03*
X77600Y-75300D03*
X77600Y-76300D03*
X77600Y-77300D03*
X77600Y-78300D03*
X77600Y-79300D03*
X83600Y-79300D03*
X83600Y-78300D03*
X83600Y-77300D03*
X83600Y-76300D03*
X83600Y-75300D03*
X83600Y-74300D03*
X83600Y-73300D03*
X83600Y-72300D03*
X83600Y-71300D03*
X83600Y-70300D03*
X83600Y-69300D03*
X83600Y-68300D03*
X83600Y-67300D03*
X83600Y-66300D03*
X83600Y-65300D03*
X83600Y-64300D03*
X83600Y-63300D03*
X83600Y-62300D03*
X83600Y-61300D03*
X83600Y-60300D03*
G54D13*
X87550Y-58900D03*
X86250Y-58900D03*
G54D20*
X86800Y-57350D03*
X86800Y-56050D03*
G54D13*
X79950Y-82800D03*
X81250Y-82800D03*
X75550Y-82800D03*
X76850Y-82800D03*
X83750Y-82800D03*
X85050Y-82800D03*
G54D12*
X43296Y-28800D03*
X43300Y-25804D03*
G54D13*
X46850Y-33100D03*
X48150Y-33100D03*
X47050Y-41900D03*
X48350Y-41900D03*
X47050Y-48300D03*
X48350Y-48300D03*
X46850Y-36900D03*
X48150Y-36900D03*
X46850Y-35500D03*
X48150Y-35500D03*
G54D14*
X46300Y-26400D03*
G54D15*
X47300Y-26400D03*
X48300Y-26400D03*
X49300Y-26400D03*
X50300Y-26400D03*
X51300Y-26400D03*
G54D16*
X40700Y-39400D03*
G54D17*
X40700Y-38400D03*
X40700Y-37400D03*
X40700Y-36400D03*
X40700Y-35400D03*
X40700Y-34400D03*
X40700Y-33400D03*
X40700Y-32400D03*
X40700Y-31400D03*
X40700Y-30400D03*
G54D16*
X40700Y-49400D03*
G54D17*
X40700Y-48400D03*
X40700Y-47400D03*
X40700Y-46400D03*
X40700Y-45400D03*
X40700Y-44400D03*
X40700Y-43400D03*
X40700Y-42400D03*
X40700Y-41400D03*
X40700Y-40400D03*
G54D16*
X54700Y-40400D03*
G54D17*
X54700Y-41400D03*
X54700Y-42400D03*
X54700Y-43400D03*
X54700Y-44400D03*
X54700Y-45400D03*
X54700Y-46400D03*
X54700Y-47400D03*
X54700Y-48400D03*
X54700Y-49400D03*
G54D16*
X54700Y-30400D03*
G54D17*
X54700Y-31400D03*
X54700Y-32400D03*
G54D18*
X54700Y-33400D03*
G54D17*
X54700Y-34400D03*
X54700Y-35400D03*
X54700Y-36400D03*
X54700Y-37400D03*
X54700Y-38400D03*
X54700Y-39400D03*
G54D19*
X47700Y-46100D03*
X47700Y-44100D03*
G54D16*
X44700Y-30400D03*
G54D17*
X44700Y-31400D03*
X44700Y-32400D03*
X44700Y-33400D03*
X44700Y-34400D03*
X44700Y-35400D03*
X44700Y-36400D03*
X44700Y-37400D03*
X44700Y-38400D03*
X44700Y-39400D03*
X44700Y-40400D03*
X44700Y-41400D03*
X44700Y-42400D03*
X44700Y-43400D03*
X44700Y-44400D03*
X44700Y-45400D03*
X44700Y-46400D03*
X44700Y-47400D03*
X44700Y-48400D03*
X44700Y-49400D03*
X50700Y-49400D03*
X50700Y-48400D03*
X50700Y-47400D03*
X50700Y-46400D03*
X50700Y-45400D03*
X50700Y-44400D03*
X50700Y-43400D03*
X50700Y-42400D03*
X50700Y-41400D03*
X50700Y-40400D03*
X50700Y-39400D03*
X50700Y-38400D03*
X50700Y-37400D03*
X50700Y-36400D03*
X50700Y-35400D03*
X50700Y-34400D03*
X50700Y-33400D03*
X50700Y-32400D03*
X50700Y-31400D03*
X50700Y-30400D03*
G54D13*
X54650Y-29000D03*
X53350Y-29000D03*
G54D20*
X53900Y-27450D03*
X53900Y-26150D03*
G54D13*
X47050Y-52900D03*
X48350Y-52900D03*
X42650Y-52900D03*
X43950Y-52900D03*
X50850Y-52900D03*
X52150Y-52900D03*
G54D12*
X59796Y-58700D03*
X59800Y-55704D03*
G54D13*
X63350Y-63000D03*
X64650Y-63000D03*
X63550Y-71800D03*
X64850Y-71800D03*
X63550Y-78200D03*
X64850Y-78200D03*
X63350Y-66800D03*
X64650Y-66800D03*
X63350Y-65400D03*
X64650Y-65400D03*
G54D14*
X62800Y-56300D03*
G54D15*
X63800Y-56300D03*
X64800Y-56300D03*
X65800Y-56300D03*
X66800Y-56300D03*
X67800Y-56300D03*
G54D16*
X57200Y-69300D03*
G54D17*
X57200Y-68300D03*
X57200Y-67300D03*
X57200Y-66300D03*
X57200Y-65300D03*
X57200Y-64300D03*
X57200Y-63300D03*
X57200Y-62300D03*
X57200Y-61300D03*
X57200Y-60300D03*
G54D16*
X57200Y-79300D03*
G54D17*
X57200Y-78300D03*
X57200Y-77300D03*
X57200Y-76300D03*
X57200Y-75300D03*
X57200Y-74300D03*
X57200Y-73300D03*
X57200Y-72300D03*
X57200Y-71300D03*
X57200Y-70300D03*
G54D16*
X71200Y-70300D03*
G54D17*
X71200Y-71300D03*
X71200Y-72300D03*
X71200Y-73300D03*
X71200Y-74300D03*
X71200Y-75300D03*
X71200Y-76300D03*
X71200Y-77300D03*
X71200Y-78300D03*
X71200Y-79300D03*
G54D16*
X71200Y-60300D03*
G54D17*
X71200Y-61300D03*
X71200Y-62300D03*
G54D18*
X71200Y-63300D03*
G54D17*
X71200Y-64300D03*
X71200Y-65300D03*
X71200Y-66300D03*
X71200Y-67300D03*
X71200Y-68300D03*
X71200Y-69300D03*
G54D19*
X64200Y-76000D03*
X64200Y-74000D03*
G54D16*
X61200Y-60300D03*
G54D17*
X61200Y-61300D03*
X61200Y-62300D03*
X61200Y-63300D03*
X61200Y-64300D03*
X61200Y-65300D03*
X61200Y-66300D03*
X61200Y-67300D03*
X61200Y-68300D03*
X61200Y-69300D03*
X61200Y-70300D03*
X61200Y-71300D03*
X61200Y-72300D03*
X61200Y-73300D03*
X61200Y-74300D03*
X61200Y-75300D03*
X61200Y-76300D03*
X61200Y-77300D03*
X61200Y-78300D03*
X61200Y-79300D03*
X67200Y-79300D03*
X67200Y-78300D03*
X67200Y-77300D03*
X67200Y-76300D03*
X67200Y-75300D03*
X67200Y-74300D03*
X67200Y-73300D03*
X67200Y-72300D03*
X67200Y-71300D03*
X67200Y-70300D03*
X67200Y-69300D03*
X67200Y-68300D03*
X67200Y-67300D03*
X67200Y-66300D03*
X67200Y-65300D03*
X67200Y-64300D03*
X67200Y-63300D03*
X67200Y-62300D03*
X67200Y-61300D03*
X67200Y-60300D03*
G54D13*
X71150Y-58900D03*
X69850Y-58900D03*
G54D20*
X70400Y-57350D03*
X70400Y-56050D03*
G54D13*
X63550Y-82800D03*
X64850Y-82800D03*
X59150Y-82800D03*
X60450Y-82800D03*
X67350Y-82800D03*
X68650Y-82800D03*
G54D12*
X59796Y-28800D03*
X59800Y-25804D03*
G54D13*
X63350Y-33100D03*
X64650Y-33100D03*
X63550Y-41900D03*
X64850Y-41900D03*
X63550Y-48300D03*
X64850Y-48300D03*
X63350Y-36900D03*
X64650Y-36900D03*
X63350Y-35500D03*
X64650Y-35500D03*
G54D14*
X62800Y-26400D03*
G54D15*
X63800Y-26400D03*
X64800Y-26400D03*
X65800Y-26400D03*
X66800Y-26400D03*
X67800Y-26400D03*
G54D16*
X57200Y-39400D03*
G54D17*
X57200Y-38400D03*
X57200Y-37400D03*
X57200Y-36400D03*
X57200Y-35400D03*
X57200Y-34400D03*
X57200Y-33400D03*
X57200Y-32400D03*
X57200Y-31400D03*
X57200Y-30400D03*
G54D16*
X57200Y-49400D03*
G54D17*
X57200Y-48400D03*
X57200Y-47400D03*
X57200Y-46400D03*
X57200Y-45400D03*
X57200Y-44400D03*
X57200Y-43400D03*
X57200Y-42400D03*
X57200Y-41400D03*
X57200Y-40400D03*
G54D16*
X71200Y-40400D03*
G54D17*
X71200Y-41400D03*
X71200Y-42400D03*
X71200Y-43400D03*
X71200Y-44400D03*
X71200Y-45400D03*
X71200Y-46400D03*
X71200Y-47400D03*
X71200Y-48400D03*
X71200Y-49400D03*
G54D16*
X71200Y-30400D03*
G54D17*
X71200Y-31400D03*
X71200Y-32400D03*
G54D18*
X71200Y-33400D03*
G54D17*
X71200Y-34400D03*
X71200Y-35400D03*
X71200Y-36400D03*
X71200Y-37400D03*
X71200Y-38400D03*
X71200Y-39400D03*
G54D19*
X64200Y-46100D03*
X64200Y-44100D03*
G54D16*
X61200Y-30400D03*
G54D17*
X61200Y-31400D03*
X61200Y-32400D03*
X61200Y-33400D03*
X61200Y-34400D03*
X61200Y-35400D03*
X61200Y-36400D03*
X61200Y-37400D03*
X61200Y-38400D03*
X61200Y-39400D03*
X61200Y-40400D03*
X61200Y-41400D03*
X61200Y-42400D03*
X61200Y-43400D03*
X61200Y-44400D03*
X61200Y-45400D03*
X61200Y-46400D03*
X61200Y-47400D03*
X61200Y-48400D03*
X61200Y-49400D03*
X67200Y-49400D03*
X67200Y-48400D03*
X67200Y-47400D03*
X67200Y-46400D03*
X67200Y-45400D03*
X67200Y-44400D03*
X67200Y-43400D03*
X67200Y-42400D03*
X67200Y-41400D03*
X67200Y-40400D03*
X67200Y-39400D03*
X67200Y-38400D03*
X67200Y-37400D03*
X67200Y-36400D03*
X67200Y-35400D03*
X67200Y-34400D03*
X67200Y-33400D03*
X67200Y-32400D03*
X67200Y-31400D03*
X67200Y-30400D03*
G54D13*
X71150Y-29000D03*
X69850Y-29000D03*
G54D20*
X70400Y-27450D03*
X70400Y-26150D03*
G54D13*
X63550Y-52900D03*
X64850Y-52900D03*
X59150Y-52900D03*
X60450Y-52900D03*
X67350Y-52900D03*
X68650Y-52900D03*
M02*
